<svg width="152" height="40" viewBox="0 0 152 40" fill="none" xmlns="http://www.w3.org/2000/svg">
<path d="M16.1559 23.3811C20.2624 22.7361 24.4265 22.2386 28.4323 21.1276C29.4465 20.8463 29.3645 21.1897 29.0957 22.0303C27.7637 26.1957 27.6675 30.9559 27.0564 35.2759" stroke="#3E9FCB" stroke-width="1.28299" stroke-linecap="round"/>
<path d="M25.5936 25.1723C18.8101 34.8087 2.68844 32.1607 2.68844 32.1607" stroke="#3E9FCB" stroke-width="1.28299" stroke-linecap="round"/>
<path d="M6.78956 17.1357C6.57096 16.7297 6.32635 16.2249 6.0557 15.6211C5.79547 15.007 5.52483 14.372 5.24378 13.7162C4.96273 13.05 4.66606 12.3995 4.35378 11.7645C4.05192 11.1295 3.74484 10.5778 3.43256 10.1094C3.30765 10.0157 3.1359 9.95848 2.9173 9.93766C2.69871 9.91684 2.4697 9.91164 2.23029 9.92205C1.99087 9.92205 1.75146 9.91684 1.51205 9.90643C1.28304 9.88562 1.08006 9.82836 0.903103 9.73468C0.736554 9.641 0.611643 9.49527 0.528369 9.29749C0.445094 9.09971 0.42948 8.81346 0.481527 8.43872H3.10467C3.15672 7.8558 3.24519 7.27809 3.37011 6.70558C3.49502 6.13307 3.66157 5.58658 3.86975 5.06611C4.08835 4.54565 4.34858 4.06162 4.65045 3.61402C4.95232 3.16642 5.31664 2.78127 5.74343 2.45858C6.17021 2.1359 6.65944 1.88087 7.21114 1.6935C7.77324 1.50613 8.40821 1.41245 9.11604 1.41245C9.36586 1.41245 9.61568 1.47491 9.86551 1.59982C10.1153 1.71432 10.3391 1.87046 10.5369 2.06824C10.7347 2.26601 10.8908 2.48981 11.0053 2.73963C11.1302 2.98946 11.1927 3.23928 11.1927 3.4891C10.9949 3.4891 10.818 3.45267 10.6618 3.37981C10.5057 3.29653 10.3547 3.20805 10.209 3.11437C10.0633 3.01028 9.90714 2.91659 9.7406 2.83332C9.57405 2.73963 9.38668 2.69279 9.17849 2.69279C8.55394 2.69279 7.97101 2.8177 7.42973 3.06753C6.89886 3.31735 6.43044 3.65045 6.02448 4.06682C5.62892 4.48319 5.31664 4.96722 5.08764 5.51892C4.85864 6.07061 4.74413 6.65353 4.74413 7.26768C4.74413 7.30932 4.74413 7.38739 4.74413 7.50189C4.75454 7.60598 4.75975 7.72048 4.75975 7.84539C4.75975 7.97031 4.75975 8.09001 4.75975 8.20451C4.77016 8.31902 4.77536 8.39709 4.77536 8.43872C5.16051 8.56364 5.59249 8.65732 6.07132 8.71978C6.55015 8.78223 7.02897 8.82387 7.5078 8.84469C7.99704 8.8551 8.46546 8.84989 8.91306 8.82907C9.37107 8.80825 9.77703 8.78223 10.1309 8.751C10.1622 8.78223 10.2194 8.83948 10.3027 8.92276C10.386 9.00603 10.4328 9.06849 10.4432 9.11012C10.4432 9.14135 10.4484 9.16217 10.4588 9.17258C10.4797 9.23504 10.4901 9.26626 10.4901 9.26626C10.4901 9.48486 10.3756 9.65661 10.1466 9.78152C9.91755 9.90643 9.62609 10.0001 9.27218 10.0626C8.91826 10.1146 8.52271 10.1511 8.08552 10.1719C7.65874 10.1927 7.24236 10.2135 6.8364 10.2343C6.44085 10.2447 6.08173 10.2656 5.75904 10.2968C5.44676 10.3176 5.22817 10.3644 5.10325 10.4373C5.23857 11.0619 5.47799 11.6656 5.8215 12.2485C6.17541 12.8314 6.53453 13.4144 6.89886 13.9973C7.26318 14.5802 7.58587 15.1683 7.86692 15.7617C8.14797 16.355 8.2885 16.9639 8.2885 17.5885C8.24686 17.5885 8.14797 17.5885 7.99183 17.5885C7.8461 17.5989 7.68996 17.5937 7.52342 17.5729C7.35687 17.5521 7.19552 17.5052 7.03938 17.4324C6.89365 17.3699 6.81038 17.271 6.78956 17.1357ZM11.4581 12.514C11.4581 11.8686 11.6091 11.2701 11.9109 10.7184C12.2128 10.1563 12.6084 9.67743 13.0976 9.28188C13.5972 8.87591 14.1541 8.55843 14.7683 8.32943C15.3928 8.10042 16.0226 7.98592 16.6576 7.98592C17.0115 7.98592 17.3238 8.10042 17.5944 8.32943C17.8755 8.55843 18.1097 8.83948 18.297 9.17258C18.4844 9.49527 18.6249 9.83877 18.7186 10.2031C18.8227 10.5674 18.8748 10.8849 18.8748 11.1556C18.8748 11.7385 18.7342 12.3058 18.4532 12.8575C18.1721 13.3988 17.8078 13.8828 17.3602 14.3096C16.9126 14.7259 16.4077 15.0642 15.8456 15.3245C15.2835 15.5847 14.7214 15.7148 14.1593 15.7148C13.6597 15.7148 13.2381 15.6315 12.8946 15.465C12.5511 15.288 12.2753 15.059 12.0671 14.778C11.8589 14.4865 11.7027 14.1482 11.5987 13.7631C11.505 13.3675 11.4581 12.9512 11.4581 12.514ZM12.7853 12.6701C12.7853 12.9407 12.8061 13.1802 12.8478 13.3883C12.8998 13.5861 12.9831 13.7579 13.0976 13.9036C13.2225 14.0493 13.3838 14.1638 13.5816 14.2471C13.7794 14.32 14.024 14.3564 14.3155 14.3564C14.7006 14.3564 15.0858 14.2523 15.4709 14.0441C15.8561 13.8255 16.1996 13.5549 16.5014 13.2322C16.8137 12.8991 17.0635 12.5348 17.2509 12.1392C17.4383 11.7437 17.532 11.3585 17.532 10.9838C17.532 10.8172 17.5163 10.6351 17.4851 10.4373C17.4539 10.2395 17.4018 10.0574 17.329 9.89082C17.2561 9.72427 17.152 9.58375 17.0167 9.46924C16.8814 9.35474 16.7096 9.29749 16.5014 9.29749C16.3141 9.29749 16.0903 9.35995 15.83 9.48486C15.5802 9.60977 15.3148 9.77111 15.0337 9.96889C14.7631 10.1667 14.4924 10.3905 14.2218 10.6403C13.9616 10.8901 13.7222 11.1399 13.5036 11.3898C13.285 11.6396 13.108 11.879 12.9727 12.108C12.8478 12.337 12.7853 12.5244 12.7853 12.6701ZM19.4837 9.12574C19.4837 9.03205 19.4889 8.93837 19.4993 8.84469C19.5097 8.74059 19.5305 8.65211 19.5618 8.57925C19.593 8.49598 19.6398 8.42831 19.7023 8.37627C19.7752 8.32422 19.874 8.2982 19.999 8.2982C20.103 8.2982 20.2176 8.38147 20.3425 8.54802C20.4778 8.70416 20.6131 8.90714 20.7484 9.15697C20.8837 9.39638 21.0139 9.66182 21.1388 9.95328C21.2741 10.2447 21.3886 10.5154 21.4823 10.7652C21.5864 11.0046 21.6696 11.2128 21.7321 11.3898C21.7946 11.5667 21.831 11.6604 21.8414 11.6708C21.9767 11.3065 22.1277 10.9109 22.2942 10.4842C22.4608 10.0574 22.6637 9.66182 22.9031 9.29749C23.153 8.92276 23.4444 8.61048 23.7775 8.36065C24.121 8.11083 24.5374 7.98592 25.0266 7.98592C25.2765 7.98592 25.5107 8.02756 25.7293 8.11083C25.9583 8.1837 26.1561 8.2982 26.3226 8.45434C26.4996 8.60007 26.6401 8.77703 26.7442 8.98521C26.8483 9.1934 26.9003 9.43281 26.9003 9.70345C26.9003 9.93246 26.8066 10.0938 26.6193 10.1875C26.4423 10.2812 26.2393 10.328 26.0103 10.328H25.8542L25.1828 9.65661C25.162 9.65661 25.1464 9.65141 25.1359 9.641C25.1151 9.641 25.0943 9.641 25.0735 9.641C25.0631 9.63059 25.0475 9.62538 25.0266 9.62538C24.6623 9.62538 24.3761 9.72948 24.1679 9.93766C23.9701 10.1354 23.8192 10.3853 23.7151 10.6871C23.611 10.9786 23.5433 11.2909 23.5121 11.624C23.4913 11.9467 23.4809 12.2433 23.4809 12.514C23.4809 12.7221 23.5017 12.9355 23.5433 13.1541C23.585 13.3623 23.6318 13.5705 23.6838 13.7787C23.7359 13.9765 23.7827 14.1847 23.8244 14.4033C23.866 14.6114 23.8868 14.83 23.8868 15.059C23.8868 15.4962 23.6526 15.7148 23.1842 15.7148C22.924 15.7148 22.6533 15.5795 22.3723 15.3089C22.0912 15.0278 21.8102 14.6739 21.5291 14.2471C21.2585 13.8203 20.9982 13.3519 20.7484 12.8419C20.4986 12.3214 20.28 11.8165 20.0926 11.3273C19.9053 10.8381 19.7543 10.3957 19.6398 10.0001C19.5357 9.60457 19.4837 9.3131 19.4837 9.12574ZM38.0331 1.97455C38.0955 1.78718 38.184 1.67789 38.2985 1.64666C38.4234 1.61543 38.5639 1.59982 38.7201 1.59982C38.9595 1.59982 39.2249 1.76116 39.5164 2.08385C39.8183 2.39613 40.1253 2.8177 40.4376 3.34858C40.7499 3.87945 41.0622 4.4884 41.3744 5.17541C41.6971 5.86242 42.0042 6.57546 42.2957 7.31452C42.5975 8.04317 42.8786 8.77182 43.1388 9.50047C43.3991 10.2291 43.6229 10.9005 43.8102 11.5147C44.008 12.1184 44.1589 12.6441 44.263 13.0917C44.3671 13.5393 44.4192 13.8464 44.4192 14.0129C44.4192 14.1795 44.3775 14.3408 44.2943 14.4969C44.2214 14.6427 44.0861 14.7155 43.8883 14.7155C43.7634 14.7155 43.6541 14.6791 43.5604 14.6062C43.4771 14.523 43.4043 14.4241 43.3418 14.3096C43.2793 14.1951 43.2221 14.0806 43.17 13.9661C43.118 13.8516 43.0712 13.7527 43.0295 13.6694C42.9879 13.5549 42.8994 13.3363 42.7641 13.0136C42.6392 12.6909 42.5039 12.3526 42.3581 11.9987C42.2228 11.6448 42.0927 11.3117 41.9678 10.9994C41.8429 10.6871 41.7544 10.4633 41.7023 10.328C40.9737 10.2031 40.2398 10.0886 39.5008 9.9845C38.7721 9.87 38.0018 9.7607 37.1899 9.65661H37.0182C36.6434 11.2701 36.3103 12.5452 36.0189 13.482C35.7378 14.4189 35.4984 15.0851 35.3006 15.4806C35.1133 15.8762 34.9623 16.0375 34.8478 15.9646C34.7437 15.9022 34.6709 15.668 34.6292 15.262C34.598 14.8456 34.6032 14.294 34.6448 13.6069C34.6969 12.9199 34.7854 12.1653 34.9103 11.3429C35.0456 10.5102 35.2069 9.641 35.3943 8.73539C35.5817 7.82978 35.8055 6.9554 36.0657 6.11225C36.3363 5.26909 36.633 4.4884 36.9557 3.77015C37.2888 3.0415 37.6479 2.44297 38.0331 1.97455ZM37.6583 7.47066C37.6583 7.8558 37.7832 8.14206 38.0331 8.32943C38.2829 8.50638 38.5848 8.62089 38.9387 8.67293C39.2926 8.72498 39.6621 8.7458 40.0473 8.73539C40.4428 8.72498 40.7811 8.71978 41.0622 8.71978C41.0622 8.3034 40.9945 7.8558 40.8592 7.37698C40.7239 6.88774 40.5521 6.40371 40.3439 5.92488C40.1357 5.44605 39.9119 4.98284 39.6725 4.53524C39.4435 4.07723 39.2301 3.66606 39.0324 3.30174C38.9179 3.41624 38.7929 3.62963 38.6576 3.94191C38.5327 4.24378 38.4026 4.58728 38.2673 4.97243C38.1424 5.34716 38.0279 5.71669 37.9238 6.08102C37.8197 6.44534 37.7416 6.74201 37.6896 6.97101C37.6896 7.00224 37.6844 7.08552 37.6739 7.22084C37.6635 7.34575 37.6583 7.42902 37.6583 7.47066ZM47.7293 15.0122C47.7814 14.7624 47.9115 14.5594 48.1197 14.4033C48.3383 14.2367 48.5829 14.0858 48.8535 13.9504C49.1346 13.8151 49.426 13.6902 49.7279 13.5757C50.0298 13.4508 50.3056 13.3207 50.5554 13.1854C50.8157 13.05 51.0291 12.8939 51.1956 12.7169C51.3622 12.5296 51.4454 12.3058 51.4454 12.0455C51.4454 11.7124 51.357 11.4366 51.18 11.218C51.0135 10.9994 50.7844 10.812 50.493 10.6559C50.2119 10.4998 49.8892 10.3696 49.5249 10.2656C49.1606 10.1615 48.7859 10.0574 48.4007 9.95328C48.026 9.83877 47.6565 9.71907 47.2921 9.59416C46.9278 9.45884 46.5999 9.29229 46.3084 9.09451C46.0274 8.89673 45.7984 8.65732 45.6214 8.37627C45.4549 8.09522 45.3716 7.74651 45.3716 7.33013C45.3716 6.98663 45.4393 6.66394 45.5746 6.36207C45.7203 6.04979 45.9077 5.75833 46.1367 5.48769C46.3761 5.20664 46.6468 4.95161 46.9486 4.72261C47.2609 4.4936 47.5836 4.30103 47.9167 4.14489C48.2602 3.98875 48.6037 3.86904 48.9472 3.78577C49.2907 3.69209 49.6082 3.64524 49.8997 3.64524H50.0714C50.1651 3.67647 50.29 3.72852 50.4461 3.80138C50.6023 3.87425 50.7532 3.94711 50.8989 4.01998C51.0447 4.08243 51.1696 4.14489 51.2737 4.20735C51.3778 4.25939 51.4298 4.29062 51.4298 4.30103V4.66015C51.232 4.68097 50.977 4.72261 50.6647 4.78506C50.3525 4.83711 50.0246 4.90997 49.6811 5.00366C49.3376 5.09734 48.9888 5.21705 48.6349 5.36278C48.281 5.4981 47.9635 5.65944 47.6825 5.84681C47.4014 6.03418 47.1724 6.25277 46.9955 6.5026C46.8185 6.74201 46.73 7.01786 46.73 7.33013C46.73 7.77773 46.8862 8.13165 47.1984 8.39188C47.5107 8.64171 47.9011 8.84989 48.3695 9.01644C48.8379 9.18299 49.348 9.33392 49.8997 9.46924C50.4618 9.59416 50.977 9.7503 51.4454 9.93766C51.9139 10.1146 52.3042 10.354 52.6165 10.6559C52.9288 10.9474 53.0849 11.3429 53.0849 11.8426C53.0849 12.1132 53.0016 12.3995 52.8351 12.7013C52.6789 12.9928 52.4655 13.2843 52.1949 13.5757C51.9347 13.8568 51.638 14.1274 51.3049 14.3876C50.9718 14.6479 50.6283 14.8769 50.2744 15.0746C49.9309 15.262 49.5926 15.4182 49.2595 15.5431C48.9264 15.6576 48.6297 15.7148 48.3695 15.7148C48.2862 15.7148 48.1977 15.7044 48.1041 15.6836C48.0104 15.6628 47.9271 15.6315 47.8542 15.5899C47.7918 15.5379 47.7397 15.465 47.6981 15.3713C47.6669 15.2776 47.6773 15.1579 47.7293 15.0122ZM53.5689 3.34858C53.5689 3.02589 53.6262 2.76045 53.7407 2.55227C53.8656 2.34408 54.0321 2.17753 54.2403 2.05262C54.4485 1.9173 54.6775 1.81841 54.9273 1.75596C55.1876 1.6935 55.453 1.65186 55.7237 1.63104C56.0047 1.59982 56.2754 1.58941 56.5356 1.59982C56.7958 1.59982 57.0352 1.59982 57.2538 1.59982C57.6806 1.59982 58.1074 1.64145 58.5342 1.72473C58.961 1.808 59.3357 1.95373 59.6584 2.16192C59.9915 2.3701 60.2621 2.65116 60.4703 3.00507C60.6785 3.34858 60.7826 3.78056 60.7826 4.30103C60.7826 4.75904 60.6889 5.21705 60.5015 5.67506C60.3246 6.12266 60.0904 6.55464 59.7989 6.97101C59.5178 7.37698 59.1952 7.75171 58.8308 8.09522C58.4665 8.42831 58.1022 8.71457 57.7379 8.95398C57.3839 9.1934 57.0404 9.38077 56.7073 9.51609C56.3846 9.65141 56.114 9.70345 55.8954 9.67223C55.7705 10.0782 55.6924 10.5154 55.6612 10.9838C55.6404 11.4418 55.6352 11.8946 55.6456 12.3422C55.656 12.7794 55.6716 13.201 55.6924 13.6069C55.7133 14.0025 55.6924 14.346 55.63 14.6375C55.5779 14.9185 55.4738 15.1319 55.3177 15.2776C55.1616 15.413 54.9221 15.4546 54.5995 15.4025C54.5058 14.6635 54.4329 13.914 54.3809 13.1541C54.3392 12.3943 54.3028 11.6396 54.2716 10.8901C54.2403 10.1406 54.2091 9.41199 54.1779 8.70416C54.1571 7.98592 54.1206 7.30411 54.0686 6.65873C54.0269 6.01336 53.9645 5.40962 53.8812 4.84752C53.7979 4.28542 53.6938 3.78577 53.5689 3.34858ZM57.4256 2.94262C57.2694 2.94262 57.0769 2.94782 56.8479 2.95823C56.6189 2.96864 56.3951 3.00507 56.1765 3.06753C55.9683 3.11957 55.7913 3.21846 55.6456 3.36419C55.4999 3.49951 55.427 3.69729 55.427 3.95752V8.04838C55.8538 8.04838 56.3066 7.93387 56.7854 7.70487C57.2642 7.47586 57.7014 7.1844 58.097 6.83049C58.4925 6.47657 58.8204 6.07581 59.0807 5.62821C59.3409 5.18061 59.471 4.73822 59.471 4.30103C59.471 3.97834 59.4086 3.72852 59.2836 3.55156C59.1691 3.3746 59.013 3.23928 58.8152 3.1456C58.6279 3.05191 58.4145 2.99466 58.175 2.97384C57.9356 2.95303 57.6858 2.94262 57.4256 2.94262ZM63.2808 14.4189C63.7492 14.4189 63.9834 14.6635 63.9834 15.1527C63.8689 15.4546 63.7232 15.6524 63.5462 15.746C63.3693 15.8501 63.2027 15.8866 63.0466 15.8553C62.9009 15.8345 62.7655 15.7617 62.6406 15.6368C62.5261 15.5118 62.4637 15.3713 62.4533 15.2152C62.4429 15.059 62.5001 14.9081 62.625 14.7624C62.7499 14.6062 62.9685 14.4917 63.2808 14.4189ZM65.6697 15.0122C65.6281 14.8456 65.5708 14.6062 65.498 14.294C65.4355 13.9817 65.3627 13.6382 65.2794 13.2634C65.2065 12.8887 65.1337 12.4983 65.0608 12.0924C64.9879 11.676 64.9203 11.2753 64.8578 10.8901C64.7954 10.4946 64.7433 10.1354 64.7017 9.81275C64.6704 9.47965 64.6548 9.20901 64.6548 9.00083C64.6548 8.90714 64.6652 8.7458 64.6861 8.51679C64.7069 8.28779 64.7381 8.04838 64.7797 7.79855C64.8214 7.54873 64.8578 7.31452 64.889 7.09592C64.9307 6.87733 64.9671 6.72639 64.9983 6.64312C65.0296 6.63271 65.0816 6.62751 65.1545 6.62751C65.2378 6.62751 65.321 6.6223 65.4043 6.61189C65.498 6.60148 65.5813 6.59628 65.6541 6.59628C65.7374 6.58587 65.7946 6.58066 65.8259 6.58066C66.3255 6.58066 66.7991 6.67955 67.2467 6.87733C67.6943 7.07511 68.1211 7.32493 68.5271 7.6268C68.9331 7.92867 69.3286 8.26697 69.7137 8.64171C70.0989 9.01644 70.484 9.38077 70.8692 9.73468C71.2647 10.0886 71.6655 10.4113 72.0715 10.7027C72.4774 10.9838 72.9094 11.1972 73.3674 11.3429C73.3674 11.2909 73.3674 11.2128 73.3674 11.1087C73.3778 10.9942 73.383 10.8745 73.383 10.7496C73.383 10.6247 73.383 10.5102 73.383 10.4061C73.3934 10.2916 73.3986 10.2083 73.3986 10.1563C73.3986 9.50047 73.357 8.8603 73.2737 8.23574C73.1905 7.61119 73.0968 6.98663 72.9927 6.36207C72.8886 5.73751 72.7949 5.11295 72.7116 4.4884C72.6284 3.85343 72.5867 3.20285 72.5867 2.53665C72.6596 2.53665 72.7481 2.54186 72.8522 2.55227C72.9667 2.55227 73.0812 2.56788 73.1957 2.59911C73.3102 2.61993 73.4143 2.66157 73.5079 2.72402C73.6016 2.77607 73.6641 2.85934 73.6953 2.97384C73.7369 3.72331 73.8306 4.47799 73.9764 5.23787C74.1221 5.98733 74.273 6.74201 74.4292 7.50189C74.5853 8.25136 74.7206 9.00603 74.8351 9.76591C74.96 10.5154 75.0225 11.2596 75.0225 11.9987C75.0225 12.134 75.0173 12.2798 75.0069 12.4359C75.0069 12.592 74.9861 12.743 74.9444 12.8887C74.9132 13.024 74.8559 13.1385 74.7727 13.2322C74.6894 13.3259 74.5645 13.3727 74.3979 13.3727C73.8566 13.3727 73.357 13.253 72.899 13.0136C72.441 12.7638 71.9934 12.4567 71.5562 12.0924C71.1294 11.7281 70.7078 11.3273 70.2915 10.8901C69.8855 10.4529 69.4639 10.0522 69.0267 9.68784C68.6 9.32351 68.1524 9.01644 67.6839 8.76662C67.2259 8.51679 66.7315 8.39188 66.2006 8.39188C66.2006 8.9748 66.2422 9.5369 66.3255 10.0782C66.4088 10.6091 66.4973 11.1399 66.591 11.6708C66.6951 12.2017 66.7887 12.7326 66.872 13.2634C66.9553 13.7839 66.9969 14.3148 66.9969 14.8561C66.9969 15.0538 66.9241 15.1892 66.7783 15.262C66.643 15.3349 66.4921 15.3713 66.3255 15.3713C66.1902 15.3713 66.0601 15.3609 65.9352 15.3401C65.8207 15.3089 65.7322 15.1996 65.6697 15.0122ZM75.6783 11.3429C75.6783 10.7808 75.7459 10.2187 75.8813 9.65661C76.0166 9.09451 76.23 8.58966 76.5214 8.14206C76.8233 7.69446 77.2084 7.33013 77.6769 7.04908C78.1557 6.76803 78.7334 6.62751 79.41 6.62751C79.7952 6.62751 80.1335 6.70037 80.4249 6.8461C80.7164 6.98142 80.961 7.16359 81.1588 7.39259C81.3565 7.62159 81.5023 7.89224 81.596 8.20451C81.7001 8.50638 81.7521 8.82387 81.7521 9.15697C81.7521 9.68784 81.6272 10.2031 81.3774 10.7027C81.138 11.2024 80.8101 11.6448 80.3937 12.0299C79.9877 12.4047 79.5193 12.6909 78.9884 12.8887C78.4576 13.0761 77.9163 13.1177 77.3646 13.0136C77.375 13.3155 77.4739 13.5601 77.6612 13.7475C77.859 13.9244 78.0932 14.0597 78.3639 14.1534C78.6345 14.2471 78.9156 14.3096 79.207 14.3408C79.4985 14.3616 79.7587 14.372 79.9877 14.372C80.2271 14.372 80.4509 14.3512 80.6591 14.3096C80.8673 14.2679 81.0755 14.2211 81.2837 14.169C81.4919 14.117 81.7001 14.0702 81.9082 14.0285C82.1268 13.9869 82.3558 13.9661 82.5953 13.9661C82.6889 13.9661 82.7826 13.9713 82.8763 13.9817C82.97 13.9921 83.0585 14.0181 83.1417 14.0597C83.225 14.091 83.2927 14.1482 83.3447 14.2315C83.3968 14.3044 83.4228 14.398 83.4228 14.5125C83.4228 14.7103 83.3499 14.8769 83.2042 15.0122C83.0585 15.1371 82.8711 15.2464 82.6421 15.3401C82.4235 15.4338 82.1789 15.5066 81.9082 15.5587C81.6376 15.6003 81.3722 15.6368 81.1119 15.668C80.8621 15.6888 80.6279 15.6992 80.4093 15.6992C80.2011 15.7096 80.045 15.7148 79.9409 15.7148C79.2747 15.7148 78.6762 15.6107 78.1453 15.4025C77.6144 15.1839 77.1668 14.8873 76.8025 14.5125C76.4382 14.1274 76.1571 13.6694 75.9593 13.1385C75.772 12.5972 75.6783 11.9987 75.6783 11.3429ZM77.3334 10.328C77.3334 10.6923 77.3802 10.9578 77.4739 11.1243C77.578 11.2909 77.8226 11.3741 78.2077 11.3741C78.4784 11.3741 78.7438 11.3273 79.004 11.2336C79.2643 11.1295 79.4985 10.989 79.7067 10.812C79.9253 10.6351 80.097 10.4269 80.2219 10.1875C80.3468 9.94807 80.4093 9.68784 80.4093 9.40679C80.4093 9.25065 80.3937 9.08931 80.3625 8.92276C80.3416 8.75621 80.2896 8.60527 80.2063 8.46995C80.123 8.32422 80.0137 8.20972 79.8784 8.12645C79.7535 8.03276 79.587 7.98592 79.3788 7.98592C79.0665 7.98592 78.7802 8.05878 78.52 8.20451C78.2702 8.33984 78.0568 8.522 77.8798 8.751C77.7029 8.9696 77.5676 9.21942 77.4739 9.50047C77.3802 9.77111 77.3334 10.047 77.3334 10.328ZM84.0474 7.81417C84.0474 7.78294 84.0526 7.75692 84.063 7.7361C84.063 7.71528 84.0682 7.68925 84.0786 7.65803C84.1202 7.60598 84.1827 7.53832 84.266 7.45505C84.3492 7.37177 84.4013 7.33013 84.4221 7.33013H87.5605C87.5605 7.21563 87.5449 7.03347 87.5137 6.78365C87.4824 6.53382 87.4512 6.25798 87.42 5.95611C87.3991 5.65424 87.3939 5.34196 87.4044 5.01927C87.4148 4.68617 87.4564 4.38951 87.5293 4.12928C87.6125 3.85863 87.7375 3.64004 87.904 3.47349C88.081 3.29653 88.3256 3.20805 88.6379 3.20805C88.6379 4.25939 88.7107 5.10254 88.8564 5.73751C89.0022 6.37248 89.1948 6.86172 89.4342 7.20522C89.684 7.54873 89.965 7.77253 90.2773 7.87662C90.5896 7.98072 90.9071 8.02756 91.2298 8.01715C91.5629 7.99633 91.8856 7.94428 92.1978 7.86101C92.5101 7.77773 92.786 7.72048 93.0254 7.68925C93.2752 7.65803 93.473 7.68405 93.6187 7.76732C93.7644 7.84019 93.8373 8.02235 93.8373 8.31381C93.8373 8.53241 93.7853 8.68855 93.6812 8.78223C93.5875 8.87591 93.4001 8.94878 93.1191 9.00083C93.0358 9.01124 92.8953 9.03205 92.6975 9.06328C92.5101 9.0841 92.2967 9.10492 92.0573 9.12574C91.8179 9.14656 91.5629 9.17258 91.2922 9.20381C91.0216 9.22463 90.7666 9.24544 90.5271 9.26626C90.2877 9.28708 90.0691 9.3027 89.8714 9.3131C89.6736 9.3131 89.5278 9.3131 89.4342 9.3131C89.4342 9.36515 89.429 9.45363 89.4186 9.57854C89.4081 9.70345 89.4029 9.78673 89.4029 9.82836C89.4029 10.2864 89.4758 10.734 89.6215 11.1712C89.7673 11.5979 89.9234 12.0247 90.09 12.4515C90.2669 12.8783 90.4283 13.3051 90.574 13.7319C90.7197 14.1586 90.7926 14.601 90.7926 15.059C90.7926 15.1423 90.7822 15.2308 90.7614 15.3245C90.7509 15.4077 90.7197 15.4858 90.6677 15.5587C90.626 15.6211 90.5584 15.668 90.4647 15.6992C90.3814 15.7408 90.2617 15.7356 90.1056 15.6836C89.71 15.5795 89.4133 15.3557 89.2156 15.0122C89.0282 14.6687 88.8877 14.2627 88.794 13.7943C88.7003 13.3155 88.6379 12.8106 88.6066 12.2798C88.5754 11.7489 88.5234 11.2544 88.4505 10.7964C88.388 10.328 88.2839 9.93246 88.1382 9.60977C87.9925 9.27667 87.7583 9.07369 87.4356 9.00083L84.4221 8.31381C84.3805 8.31381 84.318 8.27218 84.2347 8.1889C84.1514 8.09522 84.0994 8.02756 84.0786 7.98592C84.0682 7.9651 84.063 7.93908 84.063 7.90785C84.0526 7.88703 84.0474 7.8558 84.0474 7.81417ZM101.629 10.328C101.629 9.9741 101.675 9.58895 101.769 9.17258C101.873 8.75621 102.014 8.33984 102.191 7.92346C102.368 7.49668 102.581 7.08552 102.831 6.68996C103.081 6.284 103.362 5.93008 103.674 5.62821C103.986 5.31594 104.325 5.07132 104.689 4.89436C105.053 4.70699 105.438 4.61331 105.844 4.61331C106.178 4.61331 106.49 4.66015 106.781 4.75383C107.073 4.83711 107.323 4.96722 107.531 5.14418C107.739 5.32114 107.9 5.54494 108.015 5.81558C108.14 6.07581 108.202 6.38809 108.202 6.75242C107.973 6.75242 107.786 6.69517 107.64 6.58066C107.505 6.45575 107.375 6.32043 107.25 6.1747C107.135 6.02897 107.005 5.89886 106.859 5.78435C106.724 5.66985 106.547 5.6126 106.328 5.6126C106.006 5.6126 105.693 5.69587 105.392 5.86242C105.1 6.02897 104.824 6.25277 104.564 6.53382C104.314 6.81487 104.09 7.13236 103.893 7.48627C103.705 7.84019 103.539 8.19931 103.393 8.56364C103.258 8.91755 103.148 9.26626 103.065 9.60977C102.992 9.95328 102.956 10.2499 102.956 10.4998C102.956 11.041 103.034 11.5511 103.19 12.0299C103.357 12.4983 103.591 12.9095 103.893 13.2634C104.195 13.6069 104.569 13.8776 105.017 14.0754C105.464 14.2731 105.975 14.372 106.547 14.372C106.911 14.372 107.255 14.32 107.578 14.2159C107.911 14.1014 108.228 13.9817 108.53 13.8568C108.842 13.7214 109.149 13.5965 109.451 13.482C109.753 13.3675 110.055 13.3103 110.357 13.3103C110.398 13.3103 110.456 13.3155 110.529 13.3259C110.612 13.3259 110.685 13.3363 110.747 13.3571C110.82 13.3779 110.883 13.4144 110.935 13.4664C110.987 13.5081 111.013 13.5757 111.013 13.6694C111.013 14.0441 110.867 14.3616 110.575 14.6218C110.294 14.8821 109.956 15.0955 109.561 15.262C109.165 15.4182 108.754 15.5327 108.327 15.6055C107.9 15.6784 107.552 15.7148 107.281 15.7148C106.49 15.7148 105.751 15.5899 105.064 15.3401C104.377 15.0799 103.778 14.7155 103.268 14.2471C102.758 13.7787 102.357 13.2166 102.066 12.5608C101.774 11.8946 101.629 11.1503 101.629 10.328ZM111.668 12.514C111.668 11.8686 111.819 11.2701 112.121 10.7184C112.423 10.1563 112.819 9.67743 113.308 9.28188C113.808 8.87591 114.364 8.55843 114.979 8.32943C115.603 8.10042 116.233 7.98592 116.868 7.98592C117.222 7.98592 117.534 8.10042 117.805 8.32943C118.086 8.55843 118.32 8.83948 118.507 9.17258C118.695 9.49527 118.835 9.83877 118.929 10.2031C119.033 10.5674 119.085 10.8849 119.085 11.1556C119.085 11.7385 118.945 12.3058 118.663 12.8575C118.382 13.3988 118.018 13.8828 117.57 14.3096C117.123 14.7259 116.618 15.0642 116.056 15.3245C115.494 15.5847 114.932 15.7148 114.37 15.7148C113.87 15.7148 113.448 15.6315 113.105 15.465C112.761 15.288 112.486 15.059 112.277 14.778C112.069 14.4865 111.913 14.1482 111.809 13.7631C111.715 13.3675 111.668 12.9512 111.668 12.514ZM112.996 12.6701C112.996 12.9407 113.016 13.1802 113.058 13.3883C113.11 13.5861 113.193 13.7579 113.308 13.9036C113.433 14.0493 113.594 14.1638 113.792 14.2471C113.99 14.32 114.234 14.3564 114.526 14.3564C114.911 14.3564 115.296 14.2523 115.681 14.0441C116.066 13.8255 116.41 13.5549 116.712 13.2322C117.024 12.8991 117.274 12.5348 117.461 12.1392C117.649 11.7437 117.742 11.3585 117.742 10.9838C117.742 10.8172 117.727 10.6351 117.695 10.4373C117.664 10.2395 117.612 10.0574 117.539 9.89082C117.466 9.72427 117.362 9.58375 117.227 9.46924C117.092 9.35474 116.92 9.29749 116.712 9.29749C116.524 9.29749 116.301 9.35995 116.04 9.48486C115.791 9.60977 115.525 9.77111 115.244 9.96889C114.973 10.1667 114.703 10.3905 114.432 10.6403C114.172 10.8901 113.932 11.1399 113.714 11.3898C113.495 11.6396 113.318 11.879 113.183 12.108C113.058 12.337 112.996 12.5244 112.996 12.6701ZM119.694 9.12574C119.694 9.03205 119.699 8.93837 119.71 8.84469C119.72 8.74059 119.741 8.65211 119.772 8.57925C119.803 8.49598 119.85 8.42831 119.913 8.37627C119.985 8.32422 120.084 8.2982 120.209 8.2982C120.313 8.2982 120.428 8.38147 120.553 8.54802C120.688 8.70416 120.823 8.90714 120.959 9.15697C121.094 9.39638 121.224 9.66182 121.349 9.95328C121.484 10.2447 121.599 10.5154 121.693 10.7652C121.797 11.0046 121.88 11.2128 121.942 11.3898C122.005 11.5667 122.041 11.6604 122.052 11.6708C122.187 11.3065 122.338 10.9109 122.504 10.4842C122.671 10.0574 122.874 9.66182 123.113 9.29749C123.363 8.92276 123.655 8.61048 123.988 8.36065C124.331 8.11083 124.748 7.98592 125.237 7.98592C125.487 7.98592 125.721 8.02756 125.94 8.11083C126.169 8.1837 126.366 8.2982 126.533 8.45434C126.71 8.60007 126.85 8.77703 126.954 8.98521C127.059 9.1934 127.111 9.43281 127.111 9.70345C127.111 9.93246 127.017 10.0938 126.83 10.1875C126.653 10.2812 126.45 10.328 126.221 10.328H126.064L125.393 9.65661C125.372 9.65661 125.357 9.65141 125.346 9.641C125.325 9.641 125.305 9.641 125.284 9.641C125.273 9.63059 125.258 9.62538 125.237 9.62538C124.873 9.62538 124.586 9.72948 124.378 9.93766C124.18 10.1354 124.029 10.3853 123.925 10.6871C123.821 10.9786 123.754 11.2909 123.722 11.624C123.702 11.9467 123.691 12.2433 123.691 12.514C123.691 12.7221 123.712 12.9355 123.754 13.1541C123.795 13.3623 123.842 13.5705 123.894 13.7787C123.946 13.9765 123.993 14.1847 124.035 14.4033C124.076 14.6114 124.097 14.83 124.097 15.059C124.097 15.4962 123.863 15.7148 123.394 15.7148C123.134 15.7148 122.864 15.5795 122.583 15.3089C122.302 15.0278 122.02 14.6739 121.739 14.2471C121.469 13.8203 121.209 13.3519 120.959 12.8419C120.709 12.3214 120.49 11.8165 120.303 11.3273C120.116 10.8381 119.965 10.3957 119.85 10.0001C119.746 9.60457 119.694 9.3131 119.694 9.12574ZM127.673 11.3429C127.673 10.7808 127.74 10.2187 127.876 9.65661C128.011 9.09451 128.224 8.58966 128.516 8.14206C128.818 7.69446 129.203 7.33013 129.671 7.04908C130.15 6.76803 130.728 6.62751 131.404 6.62751C131.79 6.62751 132.128 6.70037 132.419 6.8461C132.711 6.98142 132.955 7.16359 133.153 7.39259C133.351 7.62159 133.497 7.89224 133.59 8.20451C133.694 8.50638 133.747 8.82387 133.747 9.15697C133.747 9.68784 133.622 10.2031 133.372 10.7027C133.132 11.2024 132.804 11.6448 132.388 12.0299C131.982 12.4047 131.514 12.6909 130.983 12.8887C130.452 13.0761 129.911 13.1177 129.359 13.0136C129.369 13.3155 129.468 13.5601 129.656 13.7475C129.853 13.9244 130.088 14.0597 130.358 14.1534C130.629 14.2471 130.91 14.3096 131.201 14.3408C131.493 14.3616 131.753 14.372 131.982 14.372C132.222 14.372 132.445 14.3512 132.654 14.3096C132.862 14.2679 133.07 14.2211 133.278 14.169C133.486 14.117 133.694 14.0702 133.903 14.0285C134.121 13.9869 134.35 13.9661 134.59 13.9661C134.683 13.9661 134.777 13.9713 134.871 13.9817C134.964 13.9921 135.053 14.0181 135.136 14.0597C135.219 14.091 135.287 14.1482 135.339 14.2315C135.391 14.3044 135.417 14.398 135.417 14.5125C135.417 14.7103 135.344 14.8769 135.199 15.0122C135.053 15.1371 134.866 15.2464 134.637 15.3401C134.418 15.4338 134.173 15.5066 133.903 15.5587C133.632 15.6003 133.367 15.6368 133.106 15.668C132.857 15.6888 132.622 15.6992 132.404 15.6992C132.196 15.7096 132.039 15.7148 131.935 15.7148C131.269 15.7148 130.671 15.6107 130.14 15.4025C129.609 15.1839 129.161 14.8873 128.797 14.5125C128.433 14.1274 128.152 13.6694 127.954 13.1385C127.766 12.5972 127.673 11.9987 127.673 11.3429ZM129.328 10.328C129.328 10.6923 129.375 10.9578 129.468 11.1243C129.572 11.2909 129.817 11.3741 130.202 11.3741C130.473 11.3741 130.738 11.3273 130.998 11.2336C131.259 11.1295 131.493 10.989 131.701 10.812C131.92 10.6351 132.091 10.4269 132.216 10.1875C132.341 9.94807 132.404 9.68784 132.404 9.40679C132.404 9.25065 132.388 9.08931 132.357 8.92276C132.336 8.75621 132.284 8.60527 132.201 8.46995C132.117 8.32422 132.008 8.20972 131.873 8.12645C131.748 8.03276 131.581 7.98592 131.373 7.98592C131.061 7.98592 130.775 8.05878 130.514 8.20451C130.265 8.33984 130.051 8.522 129.874 8.751C129.697 8.9696 129.562 9.21942 129.468 9.50047C129.375 9.77111 129.328 10.047 129.328 10.328Z" fill="#3E9FCB"/>
</svg>
