<svg width="93" height="39" viewBox="0 0 93 39" fill="none" xmlns="http://www.w3.org/2000/svg">
<path d="M9.20404 22.7663C7.03293 24.8007 4.9343 26.9352 2.49956 28.6992C1.88314 29.1458 2.1439 29.2564 2.81101 29.4887C6.11711 30.6397 9.28862 32.764 12.3897 34.3948" stroke="#B84297" stroke-width="1.28299" stroke-linecap="round"/>
<path d="M6.6909 28.6924C15.9036 29.6588 25.4808 29.2765 29.8451 25.0743C30.6919 24.259 31.878 22.9046 31.6394 21.5179" stroke="#B84297" stroke-width="1.28299" stroke-linecap="round"/>
<path d="M6.75843 17.2553C6.53984 16.8494 6.29522 16.3445 6.02458 15.7408C5.76434 15.1266 5.4937 14.4917 5.21265 13.8359C4.9316 13.1697 4.63494 12.5191 4.32266 11.8841C4.02079 11.2492 3.71371 10.6975 3.40143 10.229C3.27652 10.1354 3.10477 10.0781 2.88617 10.0573C2.66758 10.0365 2.43857 10.0313 2.19916 10.0417C1.95975 10.0417 1.72033 10.0365 1.48092 10.0261C1.25191 10.0052 1.04893 9.94799 0.871975 9.85431C0.705427 9.76063 0.580515 9.6149 0.497241 9.41712C0.413966 9.21934 0.398352 8.93309 0.450399 8.55835H3.07354C3.12559 7.97543 3.21407 7.39772 3.33898 6.82521C3.46389 6.25269 3.63044 5.70621 3.83862 5.18574C4.05722 4.66528 4.31745 4.18124 4.61932 3.73364C4.92119 3.28604 5.28552 2.9009 5.7123 2.57821C6.13908 2.25552 6.62832 2.0005 7.18001 1.81313C7.74211 1.62576 8.37708 1.53208 9.08491 1.53208C9.33473 1.53208 9.58456 1.59453 9.83438 1.71945C10.0842 1.83395 10.308 1.99009 10.5058 2.18786C10.7036 2.38564 10.8597 2.60944 10.9742 2.85926C11.0991 3.10909 11.1616 3.35891 11.1616 3.60873C10.9638 3.60873 10.7868 3.5723 10.6307 3.49944C10.4746 3.41616 10.3236 3.32768 10.1779 3.234C10.0322 3.12991 9.87602 3.03622 9.70947 2.95295C9.54292 2.85926 9.35555 2.81242 9.14737 2.81242C8.52281 2.81242 7.93989 2.93733 7.3986 3.18716C6.86773 3.43698 6.39931 3.77008 5.99335 4.18645C5.5978 4.60282 5.28552 5.08685 5.05651 5.63855C4.82751 6.19024 4.71301 6.77316 4.71301 7.38731C4.71301 7.42894 4.71301 7.50701 4.71301 7.62152C4.72341 7.72561 4.72862 7.84011 4.72862 7.96502C4.72862 8.08993 4.72862 8.20964 4.72862 8.32414C4.73903 8.43865 4.74423 8.51672 4.74423 8.55835C5.12938 8.68326 5.56136 8.77695 6.04019 8.8394C6.51902 8.90186 6.99785 8.9435 7.47667 8.96432C7.96591 8.97472 8.43433 8.96952 8.88193 8.9487C9.33994 8.92788 9.7459 8.90186 10.0998 8.87063C10.131 8.90186 10.1883 8.95911 10.2716 9.04239C10.3548 9.12566 10.4017 9.18812 10.4121 9.22975C10.4121 9.26098 10.4173 9.2818 10.4277 9.29221C10.4485 9.35466 10.4589 9.38589 10.4589 9.38589C10.4589 9.60449 10.3444 9.77624 10.1154 9.90115C9.88643 10.0261 9.59496 10.1197 9.24105 10.1822C8.88713 10.2342 8.49158 10.2707 8.05439 10.2915C7.62761 10.3123 7.21124 10.3331 6.80527 10.354C6.40972 10.3644 6.0506 10.3852 5.72791 10.4164C5.41563 10.4372 5.19704 10.4841 5.07213 10.5569C5.20745 11.1815 5.44686 11.7852 5.79037 12.3682C6.14428 12.9511 6.5034 13.534 6.86773 14.1169C7.23205 14.6998 7.55474 15.288 7.83579 15.8813C8.11684 16.4746 8.25737 17.0836 8.25737 17.7081C8.21573 17.7081 8.11684 17.7081 7.96071 17.7081C7.81498 17.7185 7.65884 17.7133 7.49229 17.6925C7.32574 17.6717 7.16439 17.6248 7.00825 17.552C6.86252 17.4895 6.77925 17.3906 6.75843 17.2553ZM25.8231 9.24537C25.8231 9.15168 25.8283 9.058 25.8387 8.96432C25.8491 8.86022 25.8699 8.77174 25.9011 8.69888C25.9324 8.6156 25.9792 8.54794 26.0417 8.4959C26.1145 8.44385 26.2134 8.41783 26.3383 8.41783C26.4424 8.41783 26.5569 8.5011 26.6818 8.66765C26.8171 8.82379 26.9525 9.02677 27.0878 9.27659C27.2231 9.51601 27.3532 9.78145 27.4781 10.0729C27.6135 10.3644 27.728 10.635 27.8216 10.8848C27.9257 11.1242 28.009 11.3324 28.0715 11.5094C28.1339 11.6863 28.1704 11.78 28.1808 11.7904C28.3161 11.4261 28.467 11.0306 28.6336 10.6038C28.8001 10.177 29.0031 9.78145 29.2425 9.41712C29.4923 9.04239 29.7838 8.73011 30.1169 8.48028C30.4604 8.23046 30.8768 8.10555 31.366 8.10555C31.6158 8.10555 31.85 8.14719 32.0686 8.23046C32.2976 8.30333 32.4954 8.41783 32.662 8.57397C32.8389 8.7197 32.9794 8.89666 33.0835 9.10484C33.1876 9.31303 33.2397 9.55244 33.2397 9.82308C33.2397 10.0521 33.146 10.2134 32.9586 10.3071C32.7817 10.4008 32.5787 10.4476 32.3497 10.4476H32.1935L31.5221 9.77624C31.5013 9.77624 31.4857 9.77104 31.4753 9.76063C31.4545 9.76063 31.4337 9.76063 31.4128 9.76063C31.4024 9.75022 31.3868 9.74501 31.366 9.74501C31.0017 9.74501 30.7154 9.84911 30.5072 10.0573C30.3095 10.2551 30.1585 10.5049 30.0544 10.8068C29.9503 11.0982 29.8827 11.4105 29.8515 11.7436C29.8306 12.0663 29.8202 12.363 29.8202 12.6336C29.8202 12.8418 29.841 13.0552 29.8827 13.2738C29.9243 13.4819 29.9712 13.6901 30.0232 13.8983C30.0753 14.0961 30.1221 14.3043 30.1637 14.5229C30.2054 14.7311 30.2262 14.9497 30.2262 15.1787C30.2262 15.6159 29.992 15.8345 29.5236 15.8345C29.2633 15.8345 28.9927 15.6991 28.7116 15.4285C28.4306 15.1474 28.1495 14.7935 27.8685 14.3667C27.5978 13.94 27.3376 13.4715 27.0878 12.9615C26.838 12.441 26.6194 11.9362 26.432 11.4469C26.2446 10.9577 26.0937 10.5153 25.9792 10.1197C25.8751 9.72419 25.8231 9.43273 25.8231 9.24537ZM33.8018 11.4625C33.8018 10.9004 33.8694 10.3383 34.0048 9.77624C34.1401 9.21414 34.3535 8.70929 34.6449 8.26169C34.9468 7.81409 35.3319 7.44976 35.8004 7.16871C36.2792 6.88766 36.8569 6.74714 37.5335 6.74714C37.9187 6.74714 38.257 6.82 38.5484 6.96573C38.8399 7.10105 39.0845 7.28321 39.2823 7.51222C39.4801 7.74122 39.6258 8.01186 39.7195 8.32414C39.8236 8.62601 39.8756 8.9435 39.8756 9.27659C39.8756 9.80747 39.7507 10.3227 39.5009 10.8224C39.2615 11.322 38.9336 11.7644 38.5172 12.1496C38.1112 12.5243 37.6428 12.8106 37.1119 13.0083C36.5811 13.1957 36.0398 13.2373 35.4881 13.1332C35.4985 13.4351 35.5974 13.6797 35.7848 13.8671C35.9825 14.0441 36.2167 14.1794 36.4874 14.2731C36.758 14.3667 37.0391 14.4292 37.3305 14.4604C37.622 14.4812 37.8822 14.4917 38.1112 14.4917C38.3506 14.4917 38.5744 14.4708 38.7826 14.4292C38.9908 14.3876 39.199 14.3407 39.4072 14.2887C39.6154 14.2366 39.8236 14.1898 40.0317 14.1481C40.2503 14.1065 40.4793 14.0857 40.7188 14.0857C40.8124 14.0857 40.9061 14.0909 40.9998 14.1013C41.0935 14.1117 41.182 14.1377 41.2652 14.1794C41.3485 14.2106 41.4162 14.2679 41.4682 14.3511C41.5203 14.424 41.5463 14.5177 41.5463 14.6322C41.5463 14.83 41.4734 14.9965 41.3277 15.1318C41.182 15.2567 40.9946 15.366 40.7656 15.4597C40.547 15.5534 40.3024 15.6263 40.0317 15.6783C39.7611 15.7199 39.4957 15.7564 39.2354 15.7876C38.9856 15.8084 38.7514 15.8188 38.5328 15.8188C38.3246 15.8292 38.1685 15.8345 38.0644 15.8345C37.3982 15.8345 36.7997 15.7304 36.2688 15.5222C35.7379 15.3036 35.2903 15.0069 34.926 14.6322C34.5617 14.247 34.2806 13.789 34.0828 13.2581C33.8955 12.7169 33.8018 12.1183 33.8018 11.4625ZM35.4569 10.4476C35.4569 10.812 35.5037 11.0774 35.5974 11.244C35.7015 11.4105 35.9461 11.4938 36.3312 11.4938C36.6019 11.4938 36.8673 11.4469 37.1276 11.3532C37.3878 11.2492 37.622 11.1086 37.8302 10.9317C38.0488 10.7547 38.2205 10.5465 38.3454 10.3071C38.4703 10.0677 38.5328 9.80747 38.5328 9.52642C38.5328 9.37028 38.5172 9.20893 38.486 9.04239C38.4651 8.87584 38.4131 8.7249 38.3298 8.58958C38.2466 8.44385 38.1373 8.32935 38.0019 8.24607C37.877 8.15239 37.7105 8.10555 37.5023 8.10555C37.19 8.10555 36.9038 8.17841 36.6435 8.32414C36.3937 8.45946 36.1803 8.64163 36.0033 8.87063C35.8264 9.08923 35.6911 9.33905 35.5974 9.6201C35.5037 9.89074 35.4569 10.1666 35.4569 10.4476ZM42.4207 7.66836C42.4935 7.41854 42.5768 7.30403 42.6705 7.32485C42.7746 7.34567 42.8995 7.46538 43.0452 7.68397C43.191 7.90257 43.3523 8.19403 43.5293 8.55835C43.7166 8.92268 43.9144 9.31823 44.1226 9.74501C44.3308 10.1614 44.5546 10.5882 44.794 11.0254C45.0438 11.4625 45.2988 11.8633 45.5591 12.2276C45.8297 12.592 46.1108 12.8938 46.4022 13.1332C46.7041 13.3727 47.0112 13.5132 47.3235 13.5548L48.5726 7.09064C48.5934 6.91368 48.6715 6.8148 48.8068 6.79398C48.9525 6.76275 49.093 6.74714 49.2284 6.74714C49.6968 6.74714 49.931 6.96573 49.931 7.40292C49.931 7.63193 49.9102 7.99625 49.8685 8.4959C49.8269 8.99554 49.7592 9.54724 49.6655 10.151C49.5719 10.7443 49.4574 11.3585 49.322 11.9934C49.1867 12.618 49.0254 13.1905 48.838 13.711C48.6506 14.2314 48.432 14.6582 48.1822 14.9913C47.9428 15.3244 47.6774 15.4909 47.3859 15.4909C46.9591 15.4909 46.5376 15.3504 46.1212 15.0694C45.7048 14.7779 45.3093 14.4032 44.9345 13.9452C44.5702 13.4767 44.2319 12.9563 43.9196 12.3838C43.6177 11.8113 43.3523 11.2387 43.1233 10.6662C42.9047 10.0833 42.733 9.52642 42.608 8.99554C42.4831 8.46467 42.4207 8.02227 42.4207 7.66836ZM50.8678 11.4625C50.8678 10.9004 50.9355 10.3383 51.0708 9.77624C51.2061 9.21414 51.4195 8.70929 51.711 8.26169C52.0128 7.81409 52.398 7.44976 52.8664 7.16871C53.3452 6.88766 53.9229 6.74714 54.5996 6.74714C54.9847 6.74714 55.323 6.82 55.6145 6.96573C55.9059 7.10105 56.1505 7.28321 56.3483 7.51222C56.5461 7.74122 56.6918 8.01186 56.7855 8.32414C56.8896 8.62601 56.9416 8.9435 56.9416 9.27659C56.9416 9.80747 56.8167 10.3227 56.5669 10.8224C56.3275 11.322 55.9996 11.7644 55.5832 12.1496C55.1773 12.5243 54.7089 12.8106 54.178 13.0083C53.6471 13.1957 53.1058 13.2373 52.5541 13.1332C52.5645 13.4351 52.6634 13.6797 52.8508 13.8671C53.0486 14.0441 53.2828 14.1794 53.5534 14.2731C53.8241 14.3667 54.1051 14.4292 54.3966 14.4604C54.688 14.4812 54.9483 14.4917 55.1773 14.4917C55.4167 14.4917 55.6405 14.4708 55.8487 14.4292C56.0569 14.3876 56.265 14.3407 56.4732 14.2887C56.6814 14.2366 56.8896 14.1898 57.0978 14.1481C57.3164 14.1065 57.5454 14.0857 57.7848 14.0857C57.8785 14.0857 57.9722 14.0909 58.0658 14.1013C58.1595 14.1117 58.248 14.1377 58.3313 14.1794C58.4146 14.2106 58.4822 14.2679 58.5343 14.3511C58.5863 14.424 58.6123 14.5177 58.6123 14.6322C58.6123 14.83 58.5395 14.9965 58.3937 15.1318C58.248 15.2567 58.0606 15.366 57.8316 15.4597C57.613 15.5534 57.3684 15.6263 57.0978 15.6783C56.8271 15.7199 56.5617 15.7564 56.3015 15.7876C56.0517 15.8084 55.8174 15.8188 55.5988 15.8188C55.3907 15.8292 55.2345 15.8345 55.1304 15.8345C54.4642 15.8345 53.8657 15.7304 53.3348 15.5222C52.8039 15.3036 52.3564 15.0069 51.992 14.6322C51.6277 14.247 51.3466 13.789 51.1489 13.2581C50.9615 12.7169 50.8678 12.1183 50.8678 11.4625ZM52.5229 10.4476C52.5229 10.812 52.5697 11.0774 52.6634 11.244C52.7675 11.4105 53.0121 11.4938 53.3973 11.4938C53.6679 11.4938 53.9334 11.4469 54.1936 11.3532C54.4538 11.2492 54.688 11.1086 54.8962 10.9317C55.1148 10.7547 55.2866 10.5465 55.4115 10.3071C55.5364 10.0677 55.5988 9.80747 55.5988 9.52642C55.5988 9.37028 55.5832 9.20893 55.552 9.04239C55.5312 8.87584 55.4791 8.7249 55.3959 8.58958C55.3126 8.44385 55.2033 8.32935 55.068 8.24607C54.9431 8.15239 54.7765 8.10555 54.5683 8.10555C54.256 8.10555 53.9698 8.17841 53.7096 8.32414C53.4597 8.45946 53.2463 8.64163 53.0694 8.87063C52.8924 9.08923 52.7571 9.33905 52.6634 9.6201C52.5697 9.89074 52.5229 10.1666 52.5229 10.4476ZM59.5804 9.24537C59.5804 9.15168 59.5856 9.058 59.596 8.96432C59.6064 8.86022 59.6272 8.77174 59.6585 8.69888C59.6897 8.6156 59.7365 8.54794 59.799 8.4959C59.8719 8.44385 59.9708 8.41783 60.0957 8.41783C60.1998 8.41783 60.3143 8.5011 60.4392 8.66765C60.5745 8.82379 60.7098 9.02677 60.8451 9.27659C60.9805 9.51601 61.1106 9.78145 61.2355 10.0729C61.3708 10.3644 61.4853 10.635 61.579 10.8848C61.6831 11.1242 61.7664 11.3324 61.8288 11.5094C61.8913 11.6863 61.9277 11.78 61.9381 11.7904C62.0734 11.4261 62.2244 11.0306 62.3909 10.6038C62.5575 10.177 62.7604 9.78145 62.9999 9.41712C63.2497 9.04239 63.5411 8.73011 63.8742 8.48028C64.2177 8.23046 64.6341 8.10555 65.1234 8.10555C65.3732 8.10555 65.6074 8.14719 65.826 8.23046C66.055 8.30333 66.2528 8.41783 66.4193 8.57397C66.5963 8.7197 66.7368 8.89666 66.8409 9.10484C66.945 9.31303 66.997 9.55244 66.997 9.82308C66.997 10.0521 66.9033 10.2134 66.716 10.3071C66.539 10.4008 66.336 10.4476 66.107 10.4476H65.9509L65.2795 9.77624C65.2587 9.77624 65.2431 9.77104 65.2326 9.76063C65.2118 9.76063 65.191 9.76063 65.1702 9.76063C65.1598 9.75022 65.1442 9.74501 65.1234 9.74501C64.759 9.74501 64.4728 9.84911 64.2646 10.0573C64.0668 10.2551 63.9159 10.5049 63.8118 10.8068C63.7077 11.0982 63.64 11.4105 63.6088 11.7436C63.588 12.0663 63.5776 12.363 63.5776 12.6336C63.5776 12.8418 63.5984 13.0552 63.64 13.2738C63.6817 13.4819 63.7285 13.6901 63.7806 13.8983C63.8326 14.0961 63.8794 14.3043 63.9211 14.5229C63.9627 14.7311 63.9835 14.9497 63.9835 15.1787C63.9835 15.6159 63.7493 15.8345 63.2809 15.8345C63.0207 15.8345 62.75 15.6991 62.469 15.4285C62.1879 15.1474 61.9069 14.7935 61.6258 14.3667C61.3552 13.94 61.095 13.4715 60.8451 12.9615C60.5953 12.441 60.3767 11.9362 60.1893 11.4469C60.002 10.9577 59.851 10.5153 59.7365 10.1197C59.6324 9.72419 59.5804 9.43273 59.5804 9.24537Z" fill="#B84297"/>
<path d="M18.0947 9.46588C17.6383 8.65656 16.7619 8.00228 15.8962 8.06436C15.1228 8.11983 14.4444 8.5531 13.898 9.10502C13.4271 9.58067 13.2713 10.4884 13.3727 11.1349C13.5244 12.1023 13.8156 12.8305 14.4342 13.5547C15.3079 14.5775 16.4918 15.2826 17.3901 16.2862C17.8816 16.8354 18.0037 17.069 18.0947 17.8203" stroke="#B84297" stroke-width="1.49894" stroke-linecap="round"/>
<path d="M18.2444 9.76444C18.6521 8.94983 19.5701 7.93226 20.3936 7.94951C21.1294 7.96492 21.7868 8.35468 22.3227 8.86713C22.7845 9.30877 22.961 10.1889 22.8852 10.8264C22.7718 11.7803 22.5184 12.5073 21.9542 13.2467C21.1573 14.2912 19.0652 16.4545 18.2444 17.4814" stroke="#B84297" stroke-width="1.49894" stroke-linecap="round"/>
</svg>
