<svg width="48" height="48" viewBox="0 0 48 48" fill="none" xmlns="http://www.w3.org/2000/svg">
<path d="M46.5938 0H1.40625C0.629625 0 0 0.629625 0 1.40625V32.5312C0 33.3079 0.629625 33.9375 1.40625 33.9375H5.71875V38.1562C5.71875 40.4825 7.61128 42.375 9.9375 42.375H13.9668C13.452 44.2626 12.2075 45.0653 11.7556 45.5994C10.8728 46.4821 11.4981 48 12.75 48H15.5625C18.958 48 21.799 45.5804 22.4525 42.375H38.0625C40.3887 42.375 42.2812 40.4825 42.2812 38.1562V33.9375H46.5938C47.3704 33.9375 48 33.3079 48 32.5312V1.40625C48 0.629625 47.3704 0 46.5938 0ZM39.4688 38.1562C39.4688 38.9317 38.8379 39.5625 38.0625 39.5625H21.1875C20.4109 39.5625 19.7812 40.1921 19.7812 40.9688C19.7812 43.2127 18.0203 45.0532 15.8076 45.1805C16.5645 43.9211 16.9688 42.4759 16.9688 40.9688C16.9688 40.1921 16.3391 39.5625 15.5625 39.5625H9.9375C9.16209 39.5625 8.53125 38.9317 8.53125 38.1562V18.4688C8.53125 17.6933 9.16209 17.0625 9.9375 17.0625H38.0625C38.8379 17.0625 39.4688 17.6933 39.4688 18.4688V38.1562ZM45.1875 31.125H42.2812V18.4688C42.2812 16.1425 40.3887 14.25 38.0625 14.25H9.9375C7.61128 14.25 5.71875 16.1425 5.71875 18.4688V31.125H2.8125V2.8125H45.1875V31.125Z" fill="#864FB1"/>
<path d="M7.125 8.4375H21.1875C21.9641 8.4375 22.5938 7.80788 22.5938 7.03125C22.5938 6.25462 21.9641 5.625 21.1875 5.625H7.125C6.34837 5.625 5.71875 6.25462 5.71875 7.03125C5.71875 7.80788 6.34837 8.4375 7.125 8.4375Z" fill="#864FB1"/>
<path d="M29.625 8.4375C30.4017 8.4375 31.0312 7.8079 31.0312 7.03125C31.0312 6.2546 30.4017 5.625 29.625 5.625C28.8483 5.625 28.2188 6.2546 28.2188 7.03125C28.2188 7.8079 28.8483 8.4375 29.625 8.4375Z" fill="#864FB1"/>
<path d="M35.25 8.4375C36.0267 8.4375 36.6562 7.8079 36.6562 7.03125C36.6562 6.2546 36.0267 5.625 35.25 5.625C34.4733 5.625 33.8438 6.2546 33.8438 7.03125C33.8438 7.8079 34.4733 8.4375 35.25 8.4375Z" fill="#864FB1"/>
<path d="M40.875 8.4375C41.6517 8.4375 42.2812 7.8079 42.2812 7.03125C42.2812 6.2546 41.6517 5.625 40.875 5.625C40.0983 5.625 39.4688 6.2546 39.4688 7.03125C39.4688 7.8079 40.0983 8.4375 40.875 8.4375Z" fill="#864FB1"/>
<path d="M32.4375 26.9062H15.5625C14.7859 26.9062 14.1562 27.5359 14.1562 28.3125C14.1562 29.0891 14.7859 29.7188 15.5625 29.7188H32.4375C33.2141 29.7188 33.8438 29.0891 33.8438 28.3125C33.8438 27.5359 33.2141 26.9062 32.4375 26.9062Z" fill="#864FB1"/>
<path d="M32.4375 32.5312H15.5625C14.7859 32.5312 14.1562 33.1609 14.1562 33.9375C14.1562 34.7141 14.7859 35.3438 15.5625 35.3438H32.4375C33.2141 35.3438 33.8438 34.7141 33.8438 33.9375C33.8438 33.1609 33.2141 32.5312 32.4375 32.5312Z" fill="#864FB1"/>
<path d="M32.4375 21.2812H21.1875C20.4109 21.2812 19.7812 21.9109 19.7812 22.6875C19.7812 23.4641 20.4109 24.0938 21.1875 24.0938H32.4375C33.2141 24.0938 33.8438 23.4641 33.8438 22.6875C33.8438 21.9109 33.2141 21.2812 32.4375 21.2812Z" fill="#864FB1"/>
</svg>
