<svg width="48" height="48" viewBox="0 0 48 48" fill="none" xmlns="http://www.w3.org/2000/svg">
<path d="M45 17.384V7.116C44.9984 6.02451 44.564 4.97821 43.792 4.2066C43.02 3.43498 41.9735 3.00106 40.882 3H25.118C24.0265 3.00106 22.98 3.43498 22.208 4.2066C21.436 4.97821 21.0016 6.02451 21 7.116V13H9.184C8.33988 13.0011 7.53063 13.3369 6.93374 13.9337C6.33685 14.5306 6.00106 15.3399 6 16.184V37H4C3.73478 37 3.48043 37.1054 3.29289 37.2929C3.10536 37.4804 3 37.7348 3 38C3 39.3261 3.52678 40.5979 4.46447 41.5355C5.40215 42.4732 6.67392 43 8 43H40C41.3261 43 42.5979 42.4732 43.5355 41.5355C44.4732 40.5979 45 39.3261 45 38C45 37.7348 44.8946 37.4804 44.7071 37.2929C44.5196 37.1054 44.2652 37 44 37H42V21.326C42.8607 21.0846 43.6193 20.5691 44.1606 19.8578C44.702 19.1464 44.9967 18.2779 45 17.384ZM23 7.116C23.0011 6.55478 23.2246 6.01688 23.6216 5.62022C24.0187 5.22357 24.5568 5.00053 25.118 5H40.882C41.4432 5.00053 41.9813 5.22357 42.3784 5.62022C42.7754 6.01688 42.9989 6.55478 43 7.116V17.384C42.9989 17.9452 42.7754 18.4831 42.3784 18.8798C41.9813 19.2764 41.4432 19.4995 40.882 19.5H32.268C32.0334 19.4996 31.8062 19.5818 31.626 19.732L26.666 23.866V20.5C26.666 20.2348 26.5606 19.9804 26.3731 19.7929C26.1856 19.6054 25.9312 19.5 25.666 19.5H25.118C24.5568 19.4995 24.0187 19.2764 23.6216 18.8798C23.2246 18.4831 23.0011 17.9452 23 17.384V7.116ZM40 41H8C7.37969 40.9999 6.77466 40.8075 6.2682 40.4494C5.76175 40.0912 5.37877 39.5848 5.172 39H42.828C42.6212 39.5848 42.2383 40.0912 41.7318 40.4494C41.2253 40.8075 40.6203 40.9999 40 41ZM20.6 37H13V33.78C13.0005 33.4669 13.1253 33.1667 13.3469 32.9455C13.5685 32.7243 13.8689 32.6 14.182 32.6H19.42C19.733 32.6 20.0331 32.7243 20.2544 32.9456C20.4757 33.1669 20.6 33.467 20.6 33.78V37ZM22.6 37V33.78C22.5995 32.9368 22.2643 32.1282 21.668 31.532C21.0718 30.9357 20.2632 30.6005 19.42 30.6H14.182C13.3386 30.6005 12.5298 30.9357 11.9333 31.5319C11.3367 32.1281 11.0011 32.9366 11 33.78V37H8V16.184C8.00053 15.8701 8.12544 15.5693 8.34737 15.3474C8.5693 15.1254 8.87015 15.0005 9.184 15H21V17.384C21.0016 18.3973 21.3762 19.3746 22.0524 20.1293C22.7286 20.8841 23.6589 21.3635 24.666 21.476V26C24.6659 26.1902 24.7201 26.3764 24.8221 26.5369C24.9241 26.6973 25.0698 26.8254 25.242 26.906C25.3749 26.9676 25.5195 26.9997 25.666 27C25.8999 26.9999 26.1264 26.9178 26.306 26.768L32.628 21.5H40V37H22.6Z" fill="#7653B9" stroke="#7653B9" stroke-width="0.5"/>
<path d="M27.5 10.5H38.5C38.7652 10.5 39.0196 10.3946 39.2071 10.2071C39.3946 10.0196 39.5 9.76522 39.5 9.5C39.5 9.23478 39.3946 8.98043 39.2071 8.79289C39.0196 8.60536 38.7652 8.5 38.5 8.5H27.5C27.2348 8.5 26.9804 8.60536 26.7929 8.79289C26.6054 8.98043 26.5 9.23478 26.5 9.5C26.5 9.76522 26.6054 10.0196 26.7929 10.2071C26.9804 10.3946 27.2348 10.5 27.5 10.5Z" fill="#7653B9" stroke="#7653B9" stroke-width="0.5"/>
<path d="M27.5 16H33C33.2652 16 33.5196 15.8946 33.7071 15.7071C33.8946 15.5196 34 15.2652 34 15C34 14.7348 33.8946 14.4804 33.7071 14.2929C33.5196 14.1054 33.2652 14 33 14H27.5C27.2348 14 26.9804 14.1054 26.7929 14.2929C26.6054 14.4804 26.5 14.7348 26.5 15C26.5 15.2652 26.6054 15.5196 26.7929 15.7071C26.9804 15.8946 27.2348 16 27.5 16Z" fill="#7653B9" stroke="#7653B9" stroke-width="0.5"/>
<path d="M16.8016 21C15.9709 21 15.1589 21.2463 14.4682 21.7078C13.7775 22.1693 13.2392 22.8253 12.9213 23.5927C12.6034 24.3602 12.5202 25.2047 12.6823 26.0194C12.8443 26.8341 13.2443 27.5825 13.8317 28.1698C14.4191 28.7572 15.1675 29.1572 15.9822 29.3193C16.7969 29.4814 17.6414 29.3982 18.4088 29.0803C19.1763 28.7624 19.8322 28.2241 20.2937 27.5334C20.7552 26.8427 21.0016 26.0307 21.0016 25.2C21.0016 24.0861 20.5591 23.0178 19.7714 22.2302C18.9838 21.4425 17.9155 21 16.8016 21ZM16.8016 27.4C16.3664 27.4 15.9411 27.271 15.5793 27.0292C15.2175 26.7875 14.9355 26.4439 14.769 26.0419C14.6025 25.6399 14.5589 25.1976 14.6438 24.7708C14.7287 24.344 14.9383 23.952 15.2459 23.6444C15.5536 23.3367 15.9456 23.1272 16.3724 23.0423C16.7991 22.9574 17.2415 23.001 17.6435 23.1675C18.0455 23.334 18.3891 23.616 18.6308 23.9777C18.8725 24.3395 19.0016 24.7649 19.0016 25.2C19.0016 25.7835 18.7698 26.3431 18.3572 26.7556C17.9446 27.1682 17.385 27.4 16.8016 27.4Z" fill="#7653B9" stroke="#7653B9" stroke-width="0.5"/>
</svg>
