<svg width="49" height="49" viewBox="0 0 49 49" fill="none" xmlns="http://www.w3.org/2000/svg">
<path d="M14.6487 27.2147C14.5715 28.6082 15.0475 29.9759 15.9733 31.0203C16.899 32.0647 18.1997 32.7015 19.5924 32.7921C20.9849 32.7014 22.2853 32.0645 23.2108 31.0201C24.1363 29.9756 24.612 28.608 24.5345 27.2147C24.612 25.8213 24.1363 24.4537 23.2108 23.4093C22.2853 22.3648 20.9849 21.728 19.5924 21.6372C18.1997 21.7278 16.899 22.3646 15.9733 23.409C15.0475 24.4535 14.5715 25.8211 14.6487 27.2147ZM21.1186 27.2147C21.1186 28.3872 20.4197 29.3762 19.5924 29.3762C18.7651 29.3762 18.0646 28.3872 18.0646 27.2147C18.0646 26.0422 18.7635 25.0531 19.5924 25.0531C20.4213 25.0531 21.1186 26.0422 21.1186 27.2147Z" fill="#6457C1"/>
<path d="M30.8097 21.6372C29.4171 21.728 28.1167 22.3648 27.1912 23.4093C26.2658 24.4537 25.7901 25.8213 25.8676 27.2147C25.7901 28.608 26.2658 29.9756 27.1912 31.0201C28.1167 32.0645 29.4171 32.7014 30.8097 32.7921C32.2024 32.7015 33.503 32.0647 34.4288 31.0203C35.3545 29.9759 35.8305 28.6082 35.7533 27.2147C35.8305 25.8211 35.3545 24.4535 34.4288 23.409C33.503 22.3646 32.2024 21.7278 30.8097 21.6372ZM30.8097 29.3762C29.9823 29.3762 29.2834 28.3872 29.2834 27.2147C29.2834 26.0422 29.9823 25.0531 30.8097 25.0531C31.637 25.0531 32.3374 26.0422 32.3374 27.2147C32.3374 28.3872 31.6394 29.3762 30.8097 29.3762Z" fill="#6457C1"/>
<path d="M43.3567 15.4674C42.2137 12.9728 36.4815 9.2761 31.5463 8.05492C31.3275 7.99807 31.0997 7.9852 30.8759 8.01704C30.6522 8.04889 30.437 8.12483 30.2428 8.24046C30.0486 8.35608 29.8793 8.5091 29.7447 8.69063C29.6101 8.87217 29.5129 9.07861 29.4586 9.29801C29.4044 9.5174 29.3942 9.74538 29.4287 9.96873C29.4632 10.1921 29.5417 10.4064 29.6596 10.5992C29.7776 10.7919 29.9326 10.9594 30.1157 11.0919C30.2988 11.2243 30.5064 11.3191 30.7264 11.3707C34.4914 12.1785 37.8823 14.2115 40.3688 17.1516C42.684 22.4405 43.9011 28.1444 43.9463 33.9176C41.5471 36.1322 38.5703 37.6229 35.3599 38.2176C35.3599 38.2176 35.3367 37.3947 35.3329 37.3484C37.4394 36.5349 39.4126 35.4118 41.1876 34.016C41.5424 33.7342 41.7707 33.3231 41.8223 32.873C41.8739 32.4229 41.7446 31.9707 41.4628 31.6159C41.1811 31.2611 40.7699 31.0328 40.3198 30.9812C39.8697 30.9296 39.4175 31.0589 39.0627 31.3407C35.081 34.3508 30.1927 35.9147 25.2031 35.7748C20.214 35.9148 15.326 34.3512 11.3444 31.3415C11.1687 31.202 10.9673 31.0985 10.7516 31.0368C10.5359 30.9751 10.3102 30.9565 10.0873 30.9821C9.86444 31.0076 9.64879 31.0768 9.45266 31.1857C9.25654 31.2946 9.08379 31.4411 8.94427 31.6168C8.80475 31.7924 8.70119 31.9939 8.63952 32.2095C8.57784 32.4252 8.55925 32.651 8.58481 32.8738C8.61037 33.0967 8.67957 33.3123 8.78847 33.5085C8.89737 33.7046 9.04384 33.8773 9.2195 34.0169C10.9868 35.4069 12.9508 36.5265 15.0472 37.3392V38.2184C11.8368 37.6236 8.86005 36.1329 6.46083 33.9183C6.50601 28.1451 7.72309 22.4411 10.0383 17.1523C12.5248 14.2121 15.9157 12.1792 19.6807 11.3714C19.8984 11.3175 20.1034 11.2213 20.284 11.0882C20.4646 10.955 20.6172 10.7877 20.733 10.5956C20.8489 10.4035 20.9258 10.1905 20.9594 9.96865C20.9929 9.74684 20.9825 9.52059 20.9286 9.30283C20.8747 9.08507 20.7784 8.88005 20.6453 8.69948C20.5122 8.51891 20.3448 8.36634 20.1527 8.25046C19.9606 8.13458 19.7476 8.05767 19.5258 8.02412C19.304 7.99057 19.0778 8.00103 18.86 8.05492C13.924 9.27593 7.9312 13.4121 7.04956 15.4674C3.74213 22.363 3.36518 28.5309 3.00327 34.4971C2.98839 34.7368 3.02439 34.9769 3.1089 35.2017C3.19341 35.4265 3.32452 35.6308 3.49362 35.8013C7.01076 39.3598 11.7176 41.495 16.7117 41.7976H16.7551C17.2081 41.7976 17.6425 41.6176 17.9628 41.2973C18.2831 40.977 18.4631 40.5426 18.4631 40.0896V38.4232C22.8982 39.4464 27.5081 39.4464 31.9432 38.4232V40.0896C31.9432 40.5426 32.1231 40.977 32.4434 41.2973C32.7637 41.6176 33.1982 41.7976 33.6511 41.7976H33.6945C38.6887 41.495 43.3955 39.3598 46.9126 35.8013C47.0817 35.6308 47.2128 35.4265 47.2973 35.2017C47.3819 34.9769 47.4179 34.7368 47.403 34.4971C47.0411 28.5309 46.6641 22.363 43.3567 15.4674V15.4674Z" fill="#6457C1"/>
<path d="M37.9921 17.498C38.2013 17.0963 38.2423 16.628 38.1063 16.196C37.9702 15.7641 37.6682 15.4038 37.2665 15.1945C33.5055 13.3962 29.3716 12.5153 25.2042 12.6242C21.0368 12.5153 16.9029 13.3961 13.1418 15.1944C12.7486 15.4083 12.455 15.768 12.3244 16.1962C12.1937 16.6244 12.2364 17.0867 12.4432 17.4837C12.65 17.8808 13.0044 18.1807 13.4302 18.3191C13.8559 18.4574 14.319 18.423 14.7196 18.2234C17.994 16.6807 21.5862 15.9326 25.2042 16.0401C28.8222 15.9327 32.4144 16.6808 35.6887 18.2236C36.0966 18.3932 36.5513 18.4134 36.9727 18.2807C37.394 18.148 37.755 17.8708 37.9921 17.498V17.498Z" fill="#6457C1"/>
</svg>
