<svg width="49" height="35" viewBox="0 0 49 35" fill="none" xmlns="http://www.w3.org/2000/svg">
<path fill-rule="evenodd" clip-rule="evenodd" d="M9.88006 0H46.7656C47.5452 0 48.1771 0.631839 48.1771 1.41144V24.9994C48.1771 30.4474 43.745 34.8794 38.297 34.8794H1.41144C0.631839 34.8794 0 34.2476 0 33.468V9.88006C0 4.43206 4.43206 0 9.88006 0ZM15.4858 32.0565H38.297C42.1884 32.0565 45.3542 28.8907 45.3542 24.9994V11.4984H15.4858V32.0565ZM45.3542 2.82288H9.88006C6.39962 2.82288 3.50139 5.35648 2.92763 8.67556H45.3542V2.82288ZM2.82288 11.4984V32.0565H12.6629V11.4984H2.82288ZM35.743 14.7955C36.5226 14.7955 37.1545 15.4273 37.1545 16.2069C37.1545 16.9865 36.5226 17.6183 35.743 17.6183H20.5157C19.7361 17.6183 19.1042 16.9865 19.1042 16.2069C19.1042 15.4273 19.7361 14.7955 20.5157 14.7955H35.743ZM39.0365 21.331C39.0365 20.5518 38.4043 19.9196 37.6251 19.9196H23.3387C22.5591 19.9196 21.9273 20.5518 21.9273 21.331C21.9273 22.1106 22.5591 22.7425 23.3387 22.7425H37.6251C38.4043 22.7425 39.0365 22.1106 39.0365 21.331ZM26.1627 25.0423H39.5077C40.2873 25.0423 40.9192 25.6742 40.9192 26.4538C40.9192 27.233 40.2873 27.8652 39.5077 27.8652H26.1627C25.3831 27.8652 24.7512 27.233 24.7512 26.4538C24.7512 25.6742 25.3831 25.0423 26.1627 25.0423Z" fill="white"/>
</svg>
