<svg width="50" height="48" viewBox="0 0 50 48" fill="none" xmlns="http://www.w3.org/2000/svg">
<path d="M0.313642 20.8071C-1.31109 31.0394 3.23566 43.3803 17.2555 47.9333C17.5058 47.9791 17.7373 48 17.9542 48C19.5852 48 20.7073 46.7861 20.7073 45.2886C20.505 44.1978 21.5061 39.7783 18.7885 40.3727C13.5347 41.4906 12.9048 38.5561 12.1039 37.0211C14.3689 39.9285 17.7727 39.8555 20.3402 38.7292C21.7647 38.1035 21.0201 36.5101 21.6959 35.9282C22.7304 35.0397 22.2048 33.3357 20.847 33.1876C16.0208 32.6558 11.5512 31.0999 11.5512 23.3808C11.5512 18.8591 14.6901 18.4545 13.8246 16.5628C13.7933 16.494 13.13 14.9902 13.7307 12.7064C16.6903 13.2528 18.0522 15.376 19.4726 14.9944C22.9911 14.035 26.8641 14.035 30.3806 14.9944C31.8489 15.3886 32.898 13.3238 36.0911 12.6939C37.0109 16.1436 35.1046 16.9862 36.3059 18.2772C37.6241 19.6955 38.2936 21.412 38.2936 23.3808C38.2936 34.9855 28.4555 31.6338 27.6546 34.268C27.4711 34.8687 27.665 35.5173 28.1447 35.9198C29.417 36.9898 29.2501 39.7366 29.1146 41.9453C28.9748 44.2354 28.8539 46.2105 30.1199 47.3242C30.5662 47.7205 31.3608 48.1439 32.7979 47.8519C46.6342 43.4074 51.2143 31.1207 49.6146 20.9114C45.243 -6.96976 4.71856 -6.93639 0.313642 20.8071ZM17.5621 43.7035L17.5704 44.7568C16.4796 44.3793 15.4535 43.9434 14.4941 43.4574C15.3805 43.6848 16.3983 43.7828 17.5621 43.7035ZM18.3338 35.9866C18.3234 36.0408 18.3129 36.0971 18.3025 36.1534C16.5234 36.679 15.1552 36.1555 14.2209 34.585C14.2209 34.5829 14.2208 34.5829 14.2188 34.5808C15.637 35.34 17.0991 35.7488 18.3338 35.9866ZM24.9578 3.15823C49.6375 3.15823 55.2041 37.0857 32.193 44.7485C32.1138 44.129 32.1868 42.961 32.2368 42.1372C32.3578 40.1537 32.4996 37.8428 31.7926 35.9115C42.4044 33.7028 43.2908 22.0502 39.205 16.859C39.7118 14.8734 39.5074 10.2078 37.6846 9.6363C37.2549 9.50073 34.9628 9.00226 30.5161 11.7991C26.885 10.9315 22.966 10.9294 19.3349 11.7991C17.1158 10.408 12.1143 8.14505 11.1549 10.5477C10.0412 13.3467 10.3061 15.6096 10.6377 16.8673C7.01071 21.4641 8.09734 29.1602 11.7514 32.7726C9.68036 31.7819 6.82717 31.444 6.2119 33.4275C5.53823 35.5903 8.11403 35.3275 9.71373 39.2757C9.86598 39.7679 10.1475 40.3456 10.5793 40.9192C-3.62618 29.3125 3.22732 3.15823 24.9578 3.15823Z" fill="#B84297"/>
</svg>
