<svg width="49" height="56" viewBox="0 0 49 56" fill="none" xmlns="http://www.w3.org/2000/svg">
<path d="M1.44143 14.82L24.1837 0.213469C24.6268 -0.0711562 25.195 -0.0711562 25.638 0.213469L48.3812 14.8141C48.7669 15.0617 49.0003 15.4889 49 15.9472L48.9945 40.1759C48.9942 40.6436 48.7514 41.0774 48.353 41.3223L25.6152 55.2844C25.3992 55.4171 25.155 55.4834 24.9109 55.4834C24.6668 55.4834 24.4226 55.4173 24.2068 55.2844L1.46754 41.3278C1.0692 41.0832 0.826157 40.6492 0.826023 40.1814L0.822926 15.9527C0.822788 15.4945 1.05614 15.0676 1.44143 14.82ZM24.9111 3.44877L16.5761 8.78182L24.9111 14.1146L33.2458 8.78182L24.9111 3.44877ZM45.8979 39.1953V30.5909L37.7303 35.5497L37.729 44.2132L45.8979 39.1953ZM37.729 31.978L45.8981 26.9604V18.248L37.729 23.4752V31.978ZM44.1454 15.7229L36.1804 10.6267L28.2155 15.7229L36.1804 20.8191L44.1454 15.7229ZM34.6326 23.4752L26.4632 18.2478V26.9604L34.6326 31.978V23.4752ZM34.6285 37.4019L29.1987 40.8759L34.6285 44.2111V37.4019ZM26.4593 51.1318L33.2193 46.9797L26.4593 42.8285V51.1318ZM24.9123 39.974L33.2661 34.7572L24.9123 29.5637L16.5584 34.7762L24.9123 39.974ZM23.3626 51.1318V42.836L16.6078 46.9825L23.3626 51.1318ZM15.1933 44.2173L20.6285 40.8791L15.1933 37.4015V44.2173ZM15.1893 31.9843L23.3583 26.9664V18.2546L15.1893 23.4818V31.9843ZM21.6058 15.7289L13.6409 10.633L5.67595 15.7289L13.6409 20.8251L21.6058 15.7289ZM3.92325 39.2015L12.0926 44.2193V35.7182L3.92325 30.6067V39.2015ZM3.92325 26.9664L12.0926 31.9843V23.4816L3.92325 18.2542V26.9664Z" fill="white"/>
</svg>
