<svg width="48" height="48" viewBox="0 0 48 48" fill="none" xmlns="http://www.w3.org/2000/svg">
<path d="M6.75 43H38.25C38.7141 43 39.1592 42.8156 39.4874 42.4874C39.8156 42.1592 40 41.7141 40 41.25V23.75C40 23.2859 39.8156 22.8408 39.4874 22.5126C39.1592 22.1844 38.7141 22 38.25 22C37.7859 22 37.3408 22.1844 37.0126 22.5126C36.6844 22.8408 36.5 23.2859 36.5 23.75V39.5H8.5V11.5H24.25C24.7141 11.5 25.1592 11.3156 25.4874 10.9874C25.8156 10.6592 26 10.2141 26 9.75C26 9.28587 25.8156 8.84075 25.4874 8.51256C25.1592 8.18437 24.7141 8 24.25 8H6.75C6.28587 8 5.84075 8.18437 5.51256 8.51256C5.18437 8.84075 5 9.28587 5 9.75V41.25C5 41.7141 5.18437 42.1592 5.51256 42.4874C5.84075 42.8156 6.28587 43 6.75 43Z" fill="#974BA9"/>
<path d="M22 19.5826V24.25C22 24.7141 22.1844 25.1592 22.5126 25.4874C22.8407 25.8156 23.2858 26 23.75 26H28.4153C28.8794 25.9999 29.3245 25.8155 29.6526 25.4872L42.4868 12.6543C42.6495 12.4917 42.7785 12.2987 42.8666 12.0863C42.9547 11.8738 43 11.6461 43 11.4161C43 11.1861 42.9547 10.9584 42.8666 10.746C42.7785 10.5335 42.6495 10.3405 42.4868 10.178L37.8196 5.51239C37.4915 5.18431 37.0464 5 36.5824 5C36.1184 5 35.6733 5.18431 35.3452 5.51239L22.5127 18.3454C22.1845 18.6735 22.0001 19.1185 22 19.5826ZM25.4999 20.3089L36.5824 9.2242L38.7751 11.417L27.6909 22.4999H25.4999V20.3089Z" fill="#974BA9"/>
</svg>
