<svg width="49" height="49" viewBox="0 0 49 49" fill="none" xmlns="http://www.w3.org/2000/svg">
<path fill-rule="evenodd" clip-rule="evenodd" d="M39.1062 15.1181H43.7419C46.1954 15.1181 48.177 17.1042 48.1771 19.5531V46.7656C48.1771 47.547 47.5423 48.1771 46.7659 48.1771C46.3987 48.1771 46.0376 48.0337 45.7677 47.7636L40.1339 42.1298H39.1063V43.742C39.1063 46.1955 37.1211 48.177 34.6712 48.177H13.5059C11.0605 48.177 9.07092 46.1874 9.07092 43.742V36.0826H8.0433L2.40951 41.7164C1.97789 42.1481 1.36166 42.2254 0.871326 42.0224C0.343826 41.804 0 41.2893 0 40.7184V16.5295C0 14.084 1.98965 12.0944 4.43511 12.0944H9.07082V4.43501C9.07082 1.98956 11.0604 0 13.5058 0H34.6712C37.1166 0 39.1062 1.98956 39.1062 4.43501V15.1181ZM28.1195 4.43501C28.1195 3.86667 28.2271 3.3228 28.4228 2.82287V2.82278H19.6532C19.9131 3.40852 20.0574 4.05637 20.0574 4.73734C20.0574 5.46028 20.6443 6.04715 21.3656 6.04715H26.5074C27.4009 6.04715 28.1195 5.32431 28.1195 4.43501ZM13.5059 2.82287C12.617 2.82287 11.8938 3.54609 11.8938 4.43501V12.0945H28.624C31.2712 12.0945 32.5002 14.1344 32.8294 15.1181H36.2834V4.43511C36.2834 3.54618 35.5602 2.82296 34.6712 2.82296H32.5547C31.6658 2.82296 30.9425 3.54618 30.9425 4.43511C30.9425 6.88865 28.9575 8.87012 26.5075 8.87012H21.3657C19.0879 8.87012 17.2347 7.01681 17.2347 4.73894C17.2347 3.68168 16.3758 2.82287 15.3201 2.82287H13.5059ZM6.4607 33.6732C6.7253 33.4085 7.08427 33.2597 7.45868 33.2597H28.6239C29.5174 33.2597 30.236 32.537 30.236 31.6476V16.5295C30.236 15.6363 29.5121 14.9174 28.6239 14.9174H4.43511C3.54618 14.9174 2.82287 15.6406 2.82287 16.5295V37.3108L6.4607 33.6732ZM13.5058 45.3541H34.6712C35.5646 45.3541 36.2833 44.6314 36.2833 43.7419V42.1297H19.5531C17.1076 42.1297 15.1181 40.1402 15.1181 37.6947V36.0826H11.8937V43.742C11.8937 44.6309 12.6169 45.3541 13.5058 45.3541ZM45.354 43.358L41.7164 39.7203C41.4517 39.4556 41.0927 39.3069 40.7184 39.3069H19.5531C18.6642 39.3069 17.9409 38.5836 17.9409 37.6947V36.0826H28.6239H40.7183C41.4978 36.0826 42.1297 35.4506 42.1297 34.6712C42.1297 33.8917 41.4978 33.2597 40.7183 33.2597H32.7566C32.9543 32.7524 33.0588 32.2081 33.0588 31.6476V30.0353H40.7182C41.4977 30.0353 42.1296 29.4034 42.1296 28.6239C42.1296 27.8444 41.4977 27.2125 40.7182 27.2125H33.0588V23.9881H40.7182C41.4977 23.9881 42.1296 23.3561 42.1296 22.5767C42.1296 21.7972 41.4977 21.1652 40.7182 21.1652H33.0588V17.9408H43.7418C44.6299 17.9408 45.354 18.6597 45.354 19.553V43.358ZM16.5279 16.631C14.0833 16.631 12.0944 18.6199 12.0944 21.0645V21.066C12.0944 21.8455 12.7263 22.4767 13.5058 22.4767C14.2853 22.4767 14.9172 21.844 14.9172 21.0645C14.9172 20.1764 15.6398 19.4539 16.5295 19.4539C17.4174 19.4539 18.1416 20.1728 18.1416 21.066L18.1418 21.1233C18.1433 21.4772 18.1455 21.9897 17.6695 22.4655L15.5314 24.6035C14.9806 25.1543 14.9806 26.0487 15.5315 26.5995C16.0824 27.1503 16.9768 27.1502 17.5275 26.5994L19.6652 24.4619C21.0102 23.1176 20.9745 21.5287 20.9655 21.1275C20.9649 21.1022 20.9645 21.0815 20.9645 21.066C20.9644 18.6163 18.9822 16.631 16.5279 16.631ZM16.5298 31.5467C17.3093 31.5467 17.9412 30.9147 17.9412 30.1352C17.9412 29.3557 17.3093 28.7238 16.5298 28.7238C15.7503 28.7238 15.1184 29.3557 15.1184 30.1352C15.1184 30.9147 15.7503 31.5467 16.5298 31.5467Z" fill="white"/>
</svg>
