<svg width="48" height="42" viewBox="0 0 48 42" fill="none" xmlns="http://www.w3.org/2000/svg">
<path fill-rule="evenodd" clip-rule="evenodd" d="M46.183 0H1.75025C0.785162 0 0 0.785162 0 1.75025V39.3598C0 40.3249 0.785162 41.11 1.75025 41.11H46.183C47.1481 41.11 47.9333 40.3249 47.9333 39.3598V1.75025C47.9333 0.785162 47.1481 0 46.183 0ZM45.1247 2.80859V4.90589L28.7061 4.94575C28.2677 4.94685 27.8493 5.11215 27.5278 5.41166L25.2181 7.56747H2.80859V2.80859H45.1247ZM2.80859 38.3014V10.3757H25.6427C26.083 10.3757 26.5028 10.2104 26.8246 9.90979L29.1355 7.75325L45.1251 7.71412V38.3014H2.80859ZM9.09957 5.49527C9.10798 5.53988 9.11932 5.58486 9.13321 5.62911C9.14638 5.6719 9.16247 5.71615 9.17929 5.75821C9.19685 5.80026 9.21659 5.84232 9.23817 5.88254C9.25975 5.92277 9.28315 5.96227 9.30839 6.00067C9.33362 6.03906 9.36178 6.07637 9.39067 6.11111C9.41992 6.14658 9.45064 6.18132 9.48356 6.21424C9.51537 6.24678 9.54975 6.27787 9.58559 6.30676C9.62106 6.33565 9.65836 6.36308 9.69676 6.38831C9.73443 6.41354 9.77466 6.43768 9.81488 6.45926C9.85511 6.48083 9.89717 6.50058 9.93922 6.5174C9.98128 6.53532 10.0244 6.55105 10.0687 6.56421C10.1126 6.57738 10.1575 6.58871 10.2014 6.59786C10.2464 6.60737 10.2925 6.61395 10.3382 6.61834C10.3839 6.62309 10.4307 6.62492 10.4757 6.62492C10.5214 6.62492 10.5682 6.62309 10.6143 6.61834C10.6593 6.61395 10.705 6.60737 10.75 6.59786C10.795 6.58871 10.8399 6.57738 10.8838 6.56421C10.927 6.55105 10.9712 6.53532 11.0129 6.5174C11.0553 6.50058 11.0974 6.48083 11.1376 6.45926C11.1779 6.43768 11.2174 6.41354 11.2557 6.38831C11.2938 6.36308 11.3314 6.33565 11.3662 6.30676C11.4028 6.27787 11.4364 6.24678 11.469 6.21424C11.5019 6.18132 11.533 6.14658 11.5618 6.11111C11.5907 6.07637 11.6178 6.03906 11.6441 6.00067C11.6686 5.96227 11.6928 5.92277 11.7143 5.88254C11.7359 5.84232 11.7557 5.80026 11.7725 5.75821C11.79 5.71615 11.8061 5.6719 11.8193 5.62911C11.8325 5.58486 11.8434 5.53988 11.8529 5.49527C11.8624 5.45028 11.8687 5.40421 11.8734 5.35922C11.8782 5.31351 11.88 5.2667 11.88 5.22099C11.88 5.17491 11.8782 5.1292 11.8734 5.08312C11.8687 5.03741 11.8624 4.99133 11.8529 4.94635C11.8434 4.90173 11.8321 4.85675 11.8193 4.8136C11.8061 4.76971 11.79 4.72656 11.7725 4.6845C11.7557 4.64135 11.7359 4.60003 11.7143 4.5598C11.6928 4.51957 11.6686 4.47935 11.6441 4.44204C11.6178 4.40365 11.5907 4.36598 11.5618 4.3305C11.5326 4.29503 11.5019 4.26029 11.469 4.22847C11.4364 4.19556 11.4028 4.16484 11.3662 4.13595C11.3314 4.1067 11.2938 4.07854 11.2557 4.0533C11.2174 4.02807 11.1779 4.00466 11.1376 3.98309C11.0974 3.96151 11.0553 3.94213 11.0129 3.92421C10.9712 3.90739 10.927 3.8913 10.8838 3.8785C10.8399 3.86424 10.795 3.85326 10.75 3.84449C10.705 3.83534 10.6593 3.82876 10.6143 3.82401C10.5225 3.81487 10.43 3.81487 10.3382 3.82401C10.2925 3.82876 10.2464 3.83534 10.2014 3.84449C10.1575 3.85326 10.1126 3.86424 10.0687 3.8785C10.0244 3.8913 9.98128 3.90739 9.93922 3.92421C9.89717 3.94213 9.85511 3.96151 9.81488 3.98309C9.77466 4.00466 9.73443 4.02807 9.69676 4.0533C9.65836 4.07854 9.62106 4.1067 9.58559 4.13595C9.54975 4.16484 9.51537 4.19556 9.48356 4.22847C9.45064 4.26029 9.41992 4.29503 9.39067 4.3305C9.36178 4.36598 9.33362 4.40365 9.30839 4.44204C9.28315 4.47935 9.25975 4.51957 9.23817 4.5598C9.21659 4.60003 9.19721 4.64135 9.17929 4.6845C9.16247 4.72656 9.14638 4.76971 9.13321 4.8136C9.11932 4.85675 9.10798 4.90173 9.09957 4.94635C9.09006 4.99133 9.08385 5.03741 9.07909 5.08312C9.07434 5.1292 9.07141 5.17491 9.07141 5.22099C9.07141 5.2667 9.07434 5.31351 9.07909 5.35922C9.08385 5.40457 9.09043 5.45028 9.09957 5.49527ZM5.20323 6.38831C5.16483 6.36308 5.12753 6.33601 5.09169 6.30676C5.05622 6.27787 5.02148 6.24678 4.98966 6.21424C4.72782 5.95203 4.57788 5.59071 4.57788 5.22099C4.57788 5.17491 4.58081 5.1292 4.58556 5.08312C4.59032 5.03741 4.59653 4.99169 4.60604 4.94671C4.61445 4.90173 4.62579 4.85785 4.63969 4.8136C4.65285 4.76971 4.66858 4.72656 4.6854 4.6845C4.70332 4.64135 4.72306 4.60039 4.74464 4.56017C4.76622 4.51957 4.78962 4.47935 4.81486 4.44204C4.84009 4.40365 4.86825 4.36634 4.89714 4.3305C4.92603 4.29503 4.95711 4.26029 4.98966 4.22847C5.02148 4.19593 5.05622 4.16484 5.09169 4.13485C5.12753 4.10706 5.16483 4.0789 5.20323 4.05367C5.2409 4.02807 5.28113 4.00466 5.32135 3.98345C5.36158 3.96188 5.40364 3.94213 5.44569 3.92421C5.48775 3.90739 5.5309 3.89166 5.57478 3.8785C5.61903 3.8646 5.66292 3.85326 5.7079 3.84485C5.75288 3.83534 5.79859 3.82876 5.84467 3.82401C5.9361 3.81487 6.02899 3.81487 6.12078 3.82401C6.16576 3.82876 6.21147 3.83534 6.25645 3.84485C6.30143 3.85326 6.34642 3.8646 6.3903 3.8785C6.43345 3.89166 6.47734 3.90739 6.51939 3.92421C6.56145 3.94213 6.60387 3.96188 6.6441 3.98345C6.68432 4.00466 6.72382 4.02807 6.76222 4.05367C6.80025 4.0789 6.83792 4.10706 6.87266 4.13485C6.90813 4.16484 6.94288 4.19593 6.97542 4.22847C7.00834 4.26029 7.03906 4.29503 7.06831 4.3305C7.0972 4.36634 7.12426 4.40365 7.1495 4.44204C7.17473 4.47935 7.19923 4.51957 7.22081 4.56017C7.24239 4.60039 7.26177 4.64135 7.27896 4.6845C7.29651 4.72656 7.3126 4.76971 7.32577 4.8136C7.33857 4.85785 7.3499 4.90173 7.35941 4.94671C7.36855 4.99169 7.37514 5.03741 7.37989 5.08312C7.38464 5.1292 7.38647 5.17491 7.38647 5.22099C7.38647 5.2667 7.38464 5.31351 7.37989 5.35959C7.37514 5.40457 7.36855 5.45028 7.35941 5.49527C7.3499 5.54025 7.33857 5.58523 7.32577 5.62911C7.3126 5.67227 7.29651 5.71615 7.27896 5.7582C7.26177 5.80026 7.24239 5.84268 7.22081 5.88291C7.19923 5.92314 7.17473 5.96227 7.1495 6.00067C7.12426 6.03906 7.0972 6.07673 7.06831 6.11111C7.03906 6.14695 7.00834 6.18132 6.97542 6.21424C6.94288 6.24678 6.90813 6.27787 6.87266 6.30676C6.83792 6.33601 6.80025 6.36308 6.76222 6.38831C6.72382 6.41354 6.68432 6.43804 6.6441 6.45962C6.60387 6.48083 6.56145 6.50058 6.51939 6.5174C6.47734 6.53532 6.43345 6.55105 6.3903 6.56421C6.34642 6.57738 6.30143 6.58871 6.25645 6.59786C6.21147 6.60736 6.16576 6.61395 6.12078 6.6187C6.0747 6.62309 6.02789 6.62528 5.98218 6.62528C5.9361 6.62528 5.89039 6.62309 5.84467 6.6187C5.79859 6.61395 5.75288 6.60736 5.7079 6.59786C5.66292 6.58871 5.61903 6.57738 5.57478 6.56421C5.5309 6.55105 5.48775 6.53532 5.44569 6.5174C5.40364 6.50058 5.36158 6.48083 5.32135 6.45962C5.28113 6.43804 5.24053 6.41354 5.20323 6.38831ZM13.687 5.49527C13.6954 5.53988 13.7063 5.58486 13.7206 5.62911C13.7338 5.6719 13.7495 5.71615 13.7663 5.75821C13.7842 5.80026 13.8036 5.84232 13.8252 5.88254C13.8468 5.92277 13.8702 5.96227 13.8954 6.00067C13.921 6.03906 13.9488 6.07637 13.9781 6.11111C14.0069 6.14658 14.038 6.18132 14.0706 6.21424C14.1024 6.24678 14.1371 6.27787 14.1726 6.30676C14.2084 6.33565 14.2458 6.36308 14.2841 6.38831C14.3215 6.41354 14.3617 6.43768 14.4019 6.45926C14.4425 6.48083 14.4842 6.50058 14.5266 6.5174C14.5687 6.53532 14.6118 6.55105 14.6557 6.56421C14.7 6.57738 14.7446 6.58871 14.7885 6.59786C14.8334 6.60737 14.8795 6.61395 14.9252 6.61834C14.9713 6.62309 15.0181 6.62492 15.0631 6.62492C15.1088 6.62492 15.1556 6.62309 15.2013 6.61834C15.2474 6.61395 15.2924 6.60737 15.3381 6.59786C15.3824 6.58871 15.427 6.57738 15.4712 6.56421C15.5151 6.55105 15.5583 6.53532 15.6003 6.5174C15.6424 6.50058 15.6844 6.48083 15.7246 6.45926C15.7652 6.43768 15.8051 6.41354 15.8428 6.38831C15.8812 6.36308 15.9185 6.33565 15.9543 6.30676C15.9898 6.27787 16.0245 6.24678 16.0563 6.21424C16.0889 6.18132 16.12 6.14658 16.1489 6.11111C16.1781 6.07637 16.2052 6.03906 16.2311 6.00067C16.2556 5.96227 16.2802 5.92277 16.3014 5.88254C16.3229 5.84232 16.3427 5.80026 16.3595 5.75821C16.3774 5.71615 16.3932 5.6719 16.4063 5.62911C16.4195 5.58486 16.4305 5.53988 16.44 5.49527C16.4495 5.45028 16.4561 5.40421 16.4604 5.35922C16.4652 5.31351 16.467 5.2667 16.467 5.22099C16.467 5.17491 16.4652 5.1292 16.4604 5.08312C16.4561 5.03741 16.4495 4.99133 16.44 4.94635C16.4305 4.90173 16.4195 4.85748 16.4063 4.8136C16.3932 4.76971 16.3774 4.72656 16.3595 4.6845C16.3427 4.64245 16.3229 4.60003 16.3014 4.5598C16.2802 4.51957 16.2556 4.47935 16.2311 4.44204C16.2052 4.40365 16.1781 4.36598 16.1489 4.3305C16.12 4.29503 16.0889 4.26029 16.0563 4.22847C16.0245 4.19556 15.9898 4.16484 15.9543 4.13595C15.9185 4.1067 15.8812 4.07854 15.8428 4.0533C15.8055 4.02807 15.7652 4.00466 15.7246 3.98309C15.6844 3.96151 15.6424 3.94213 15.6003 3.92421C15.5583 3.90739 15.5151 3.8913 15.4712 3.8785C15.427 3.86533 15.3824 3.85326 15.3381 3.84449C15.2924 3.83534 15.2474 3.82876 15.2013 3.82401C15.1099 3.81487 15.017 3.81487 14.9252 3.82401C14.8795 3.82876 14.8338 3.83534 14.7885 3.84449C14.7446 3.85326 14.7 3.86533 14.6557 3.8785C14.6118 3.8913 14.5687 3.90739 14.5266 3.92421C14.4842 3.94213 14.4425 3.96151 14.4019 3.98309C14.3617 4.00466 14.3215 4.02807 14.2841 4.0533C14.2458 4.07854 14.2081 4.1067 14.1726 4.13595C14.1371 4.16484 14.1024 4.19556 14.0706 4.22847C14.0377 4.26029 14.0069 4.29503 13.9781 4.3305C13.9488 4.36598 13.921 4.40365 13.8954 4.44204C13.8702 4.47935 13.8468 4.51957 13.8252 4.5598C13.804 4.60003 13.7842 4.64245 13.7663 4.6845C13.7495 4.72656 13.7334 4.76971 13.7206 4.8136C13.7063 4.85748 13.6954 4.90173 13.687 4.94635C13.6775 4.99133 13.6709 5.03741 13.6661 5.08312C13.6614 5.1292 13.6588 5.17491 13.6588 5.22099C13.6588 5.2667 13.6614 5.31351 13.6661 5.35922C13.6709 5.40457 13.6775 5.45028 13.687 5.49527ZM16.1293 17.5673C16.6935 17.0352 17.5822 17.0615 18.1143 17.6254C18.6464 18.1897 18.6204 19.0787 18.0558 19.6108L13.1711 24.2165L18.0558 28.8221C18.6201 29.3542 18.6464 30.2433 18.1143 30.8072C17.8378 31.1001 17.4655 31.2482 17.0922 31.2482C16.7466 31.2482 16.4006 31.1213 16.1293 30.8657L10.2111 25.2854C9.91818 25.0093 9.74996 24.6199 9.7496 24.2172C9.7496 23.8146 9.91745 23.4247 10.21 23.1483L16.1293 17.5673ZM26.9858 17.3066C26.2771 16.991 25.4473 17.3095 25.1317 18.0183L20.1198 29.2731C19.8042 29.9818 20.1227 30.8116 20.8314 31.1272C21.0168 31.2099 21.211 31.249 21.4019 31.249C21.9395 31.249 22.4526 30.9385 22.6855 30.4156L27.6975 19.1607C28.0131 18.452 27.6942 17.6222 26.9858 17.3066ZM29.821 17.6254C30.3531 17.0615 31.2417 17.0352 31.806 17.5673L37.7241 23.1475C38.0178 23.4247 38.1857 23.8142 38.1857 24.2172C38.1853 24.6199 38.0171 25.0093 37.7241 25.2854L31.806 30.8657C31.5346 31.1213 31.1883 31.2482 30.8431 31.2482C30.4697 31.2482 30.0974 31.1001 29.821 30.8072C29.2889 30.2429 29.3152 29.3542 29.8795 28.8221L34.7641 24.2165L29.8795 19.6105C29.3152 19.0787 29.2889 18.1897 29.821 17.6254Z" fill="white"/>
</svg>
