<svg width="48" height="48" viewBox="0 0 48 48" fill="none" xmlns="http://www.w3.org/2000/svg">
<path fill-rule="evenodd" clip-rule="evenodd" d="M38.3411 14.1366L39.4139 13.6002V3.34494L32.7239 0H14.1366V9.59218L13.6002 8.51939H3.34494L0 15.2094V33.7967H9.59218L8.51939 34.3331V44.5883L15.2094 47.9333H33.7967V38.3411L34.3331 39.4139H44.5883L47.9333 32.7239V14.1366H38.3411ZM33.7967 3.67654L36.6053 5.08083V11.8644L33.7967 13.2687V3.67654ZM5.08083 11.328H11.8644L13.2687 14.1366H3.67654L5.08083 11.328ZM14.1366 44.2567L11.328 42.8525V36.0689L14.1366 34.6646V44.2567ZM42.8525 36.6053H36.0689L34.6647 33.7874L44.2567 33.7873L42.8525 36.6053ZM45.1247 30.9881C41.5753 30.9882 31.1124 30.9884 30.9919 30.9881H30.9881V45.1247H16.9452V30.9881H2.80859V16.9452H16.9452V2.80859H30.9881V16.9452H45.1247V30.9881ZM26.7745 14.1369H21.1573V16.9454H26.7745V14.1369ZM21.1573 30.989H26.7745V33.7976H21.1573V30.989ZM16.9444 21.1586H14.1358V26.7758H16.9444V21.1586ZM30.9878 21.1586H33.7964V26.7758H30.9878V21.1586Z" fill="white"/>
</svg>
