<svg width="49" height="43" viewBox="0 0 49 43" fill="none" xmlns="http://www.w3.org/2000/svg">
<g opacity="0.35">
<path d="M8.31073 9.13184C8.70855 9.13184 9.09009 8.9738 9.37139 8.6925C9.65269 8.41119 9.81073 8.02966 9.81073 7.63184C9.81073 7.23401 9.65269 6.85248 9.37139 6.57118C9.09009 6.28987 8.70855 6.13184 8.31073 6.13184C7.91291 6.13184 7.53137 6.28987 7.25007 6.57118C6.96877 6.85248 6.81073 7.23401 6.81073 7.63184C6.81073 8.02966 6.96877 8.41119 7.25007 8.6925C7.53137 8.9738 7.91291 9.13184 8.31073 9.13184ZM14.3107 7.63184C14.3107 8.02966 14.1527 8.41119 13.8714 8.6925C13.5901 8.9738 13.2086 9.13184 12.8107 9.13184C12.4129 9.13184 12.0314 8.9738 11.7501 8.6925C11.4688 8.41119 11.3107 8.02966 11.3107 7.63184C11.3107 7.23401 11.4688 6.85248 11.7501 6.57118C12.0314 6.28987 12.4129 6.13184 12.8107 6.13184C13.2086 6.13184 13.5901 6.28987 13.8714 6.57118C14.1527 6.85248 14.3107 7.23401 14.3107 7.63184ZM17.3107 9.13184C17.7086 9.13184 18.0901 8.9738 18.3714 8.6925C18.6527 8.41119 18.8107 8.02966 18.8107 7.63184C18.8107 7.23401 18.6527 6.85248 18.3714 6.57118C18.0901 6.28987 17.7086 6.13184 17.3107 6.13184C16.9129 6.13184 16.5314 6.28987 16.2501 6.57118C15.9688 6.85248 15.8107 7.23401 15.8107 7.63184C15.8107 8.02966 15.9688 8.41119 16.2501 8.6925C16.5314 8.9738 16.9129 9.13184 17.3107 9.13184V9.13184Z" fill="white"/>
<path d="M6.81073 0.131836C5.21943 0.131836 3.69331 0.763977 2.56809 1.8892C1.44287 3.01441 0.81073 4.54054 0.81073 6.13184L0.81073 36.1318C0.81073 37.7231 1.44287 39.2493 2.56809 40.3745C3.69331 41.4997 5.21943 42.1318 6.81073 42.1318H42.8107C44.402 42.1318 45.9282 41.4997 47.0534 40.3745C48.1786 39.2493 48.8107 37.7231 48.8107 36.1318V6.13184C48.8107 4.54054 48.1786 3.01441 47.0534 1.8892C45.9282 0.763977 44.402 0.131836 42.8107 0.131836H6.81073ZM42.8107 3.13184C43.6064 3.13184 44.3694 3.44791 44.932 4.01052C45.4947 4.57312 45.8107 5.33619 45.8107 6.13184V12.1318H3.81073V6.13184C3.81073 5.33619 4.1268 4.57312 4.68941 4.01052C5.25202 3.44791 6.01508 3.13184 6.81073 3.13184H42.8107ZM3.81073 36.1318V15.1318H15.8107V39.1318H6.81073C6.01508 39.1318 5.25202 38.8158 4.68941 38.2532C4.1268 37.6905 3.81073 36.9275 3.81073 36.1318ZM18.8107 39.1318V15.1318H45.8107V36.1318C45.8107 36.9275 45.4947 37.6905 44.932 38.2532C44.3694 38.8158 43.6064 39.1318 42.8107 39.1318H18.8107Z" fill="white"/>
</g>
</svg>
