<svg width="122" height="33" viewBox="0 0 122 33" fill="none" xmlns="http://www.w3.org/2000/svg">
<path d="M35.8581 24.4666V9.47543H37.7864L46.9515 21.5475V9.47543H48.7846V24.4666H46.8562L37.68 12.2759V24.4666H35.847H35.8581ZM63.7159 23.8714C62.4662 24.3332 61.1438 24.5671 59.8115 24.5619C54.3834 24.5619 51.6682 21.9664 51.6682 16.7521C51.6682 11.8238 54.287 9.34688 59.5367 9.34688C61.0372 9.34688 62.4403 9.56077 63.7258 9.96749V11.6343C62.4403 11.1356 61.1071 10.8962 59.7495 10.8962C55.6545 10.8962 53.6065 12.8489 53.6065 16.7056C53.6065 20.8726 55.6301 22.945 59.6542 22.945C60.2969 22.945 61.0118 22.8496 61.7975 22.6834V17.6598H63.7258V23.8737L63.7159 23.8714ZM66.8112 18.6805V9.46657H68.7395V18.6805C68.7395 21.5619 70.1802 23.0026 73.0616 23.0026C75.9187 23.0026 77.3837 21.5619 77.3837 18.6805V9.46657H79.3121V18.6805C79.3121 22.6092 77.2397 24.5851 73.0727 24.5851C68.9057 24.5851 66.8333 22.6092 66.8333 18.6805H66.8112ZM84.6693 9.47543V22.915H92.5378V24.4865H82.752V9.47543H84.6804H84.6693ZM95.3128 24.4754H93.2892L100.739 7.51053L108.192 24.4865H106.048L104.12 19.7721H99.1662L99.6904 18.2006H103.476L100.667 11.4149L95.3084 24.4865L95.3128 24.4754ZM110.265 24.4754V9.47543H116.671C119.528 9.47543 120.956 10.6657 120.956 13.0706C120.956 15.0233 119.551 16.4751 116.767 17.3927L121.909 24.4632H119.36L114.598 17.7252V16.4873C117.455 16.0351 118.92 14.9402 118.92 13.1781C118.92 11.7972 118.145 11.1057 116.54 11.1057H112.254V24.4666H110.278L110.265 24.4754Z" fill="#B52E31"/>
<path d="M0 5.4757L15.3568 0.00100708L31.1193 5.3815L28.5704 25.6911L15.3568 32.9999L2.35722 25.7963L0 5.4757Z" fill="#E23237"/>
<path d="M31.1194 5.38049L15.3569 0V33L28.5715 25.6901L31.1205 5.38049H31.1194Z" fill="#B52E31"/>
<path d="M15.3823 3.85666L5.80932 25.1315L9.38117 25.0606L11.3095 20.2508H19.8573L21.963 25.1082L25.3675 25.1792L15.3911 3.84558L15.3823 3.85666ZM15.4044 10.6901L18.6427 17.4525H12.5696L15.4044 10.6923V10.6901Z" fill="white"/>
</svg>
