<?xml version="1.0" standalone="no"?><!DOCTYPE svg PUBLIC "-//W3C//DTD SVG 1.1//EN" "http://www.w3.org/Graphics/SVG/1.1/DTD/svg11.dtd"><svg t="1678364183722" class="icon" viewBox="0 0 1024 1024" version="1.1" xmlns="http://www.w3.org/2000/svg" p-id="4507" xmlns:xlink="http://www.w3.org/1999/xlink" width="200" height="200"><path d="M813.176471 512v-54.211765h36.141176c30.117647 0 60.235294-24.094118 60.235294-60.235294v-174.682353c0-30.117647-24.094118-60.235294-60.235294-60.235294h-469.835294v-30.117647c0-36.141176-24.094118-60.235294-60.235294-60.235294h-114.447059c-36.141176 0-60.235294 30.117647-60.235294 60.235294v30.117647h-54.211765c-30.117647 0-60.235294 24.094118-60.235294 60.235294v174.682353c0 30.117647 24.094118 60.235294 60.235294 60.235294h24.094118v397.552941h-60.235294v60.235295h590.305882c36.141176 24.094118 78.305882 36.141176 120.470588 36.141176 120.470588 0 222.870588-96.376471 222.870589-222.870588 6.023529-102.4-72.282353-192.752941-174.682353-216.847059z m-602.352942-379.482353h114.447059v114.447059h-114.447059v-114.447059z m-120.470588 96.376471h54.211765v24.094117c0 36.141176 24.094118 60.235294 60.235294 60.235294h114.447059c36.141176 0 60.235294-30.117647 60.235294-60.235294v-24.094117h463.811765v168.658823h-752.941177v-168.658823z m90.352941 228.894117h578.258824v48.188236c-120.470588 6.023529-210.823529 96.376471-210.82353 222.870588 0 48.188235 18.070588 90.352941 42.164706 126.494117h-409.6v-397.552941z m590.305883 433.694118c-90.352941 0-162.635294-72.282353-162.635294-162.635294s72.282353-162.635294 162.635294-162.635294 162.635294 72.282353 162.635294 162.635294-78.305882 162.635294-162.635294 162.635294z" fill="#d1d5db" p-id="4508"></path><path d="M740.894118 674.635294h60.235294v168.658824h-60.235294z" fill="#d1d5db" p-id="4509"></path><path d="M771.011765 626.447059m-30.117647 0a30.117647 30.117647 0 1 0 60.235294 0 30.117647 30.117647 0 1 0-60.235294 0Z" fill="#d1d5db" p-id="4510"></path></svg>