<?xml version="1.0" encoding="UTF-8"?>
<svg width="230px" height="230px" viewBox="0 0 230 230" version="1.1" xmlns="http://www.w3.org/2000/svg" xmlns:xlink="http://www.w3.org/1999/xlink">
    <title>成功</title>
    <defs>
        <linearGradient x1="100%" y1="45.839497%" x2="-5.64856488%" y2="54.5699909%" id="linearGradient-1">
            <stop stop-color="#6973C1" offset="0%"></stop>
            <stop stop-color="#0D1677" offset="100%"></stop>
        </linearGradient>
        <linearGradient x1="100%" y1="46.875%" x2="-5.64856488%" y2="53.432571%" id="linearGradient-2">
            <stop stop-color="#6973C1" offset="0%"></stop>
            <stop stop-color="#0D1677" offset="100%"></stop>
        </linearGradient>
        <linearGradient x1="118.602542%" y1="37.0716584%" x2="19.4602962%" y2="53.1132037%" id="linearGradient-3">
            <stop stop-color="#3797E2" offset="0%"></stop>
            <stop stop-color="#7DD2FB" offset="100%"></stop>
        </linearGradient>
        <linearGradient x1="75.7583522%" y1="44.7118939%" x2="0%" y2="62.5%" id="linearGradient-4">
            <stop stop-color="#B7BDE9" offset="0%"></stop>
            <stop stop-color="#8891D9" offset="100%"></stop>
        </linearGradient>
        <linearGradient x1="50.617284%" y1="0%" x2="49.3129807%" y2="104.921136%" id="linearGradient-5">
            <stop stop-color="#6973C1" offset="0%"></stop>
            <stop stop-color="#0D1677" offset="100%"></stop>
        </linearGradient>
        <linearGradient x1="75.7583522%" y1="48.9554358%" x2="0%" y2="52.4691358%" id="linearGradient-6">
            <stop stop-color="#B7BDE9" offset="0%"></stop>
            <stop stop-color="#8891D9" offset="100%"></stop>
        </linearGradient>
        <linearGradient x1="75.7583522%" y1="49.9453112%" x2="0%" y2="50.1292732%" id="linearGradient-7">
            <stop stop-color="#B7BDE9" offset="0%"></stop>
            <stop stop-color="#8891D9" offset="100%"></stop>
        </linearGradient>
        <linearGradient x1="100%" y1="0%" x2="0%" y2="93.7894185%" id="linearGradient-8">
            <stop stop-color="#5EDFC2" offset="0%"></stop>
            <stop stop-color="#5CC4AC" offset="100%"></stop>
        </linearGradient>
        <linearGradient x1="100%" y1="0%" x2="-5.64856488%" y2="104.921136%" id="linearGradient-9">
            <stop stop-color="#6973C1" offset="0%"></stop>
            <stop stop-color="#0D1677" offset="100%"></stop>
        </linearGradient>
        <linearGradient x1="100%" y1="0%" x2="-5.64856488%" y2="104.921136%" id="linearGradient-10">
            <stop stop-color="#E3E5F8" offset="0%"></stop>
            <stop stop-color="#0D1677" offset="100%"></stop>
        </linearGradient>
        <linearGradient x1="68.1546226%" y1="46.1940927%" x2="0%" y2="59.7620335%" id="linearGradient-11">
            <stop stop-color="#7DD2FB" offset="0%"></stop>
            <stop stop-color="#3797E2" offset="100%"></stop>
        </linearGradient>
        <linearGradient x1="101.980226%" y1="45.5234843%" x2="0%" y2="59.0835797%" id="linearGradient-12">
            <stop stop-color="#EEEEEE" offset="0%"></stop>
            <stop stop-color="#D8D8D8" stop-opacity="0" offset="100%"></stop>
        </linearGradient>
        <linearGradient x1="101.980226%" y1="45.6909317%" x2="0%" y2="58.7438017%" id="linearGradient-13">
            <stop stop-color="#EEEEEE" offset="0%"></stop>
            <stop stop-color="#D8D8D8" stop-opacity="0" offset="100%"></stop>
        </linearGradient>
    </defs>
    <g id="成功" stroke="none" stroke-width="1" fill="none" fill-rule="evenodd">
        <g id="编组-38备份" transform="translate(42.000000, 51.000000)">
            <rect id="矩形" fill="url(#linearGradient-1)" x="42.7688898" y="13.2" width="57.2" height="16.5"></rect>
            <g id="编组-35" transform="translate(106.700000, 0.000000)">
                <g id="编组-33">
                    <rect id="矩形" fill="url(#linearGradient-2)" x="10.8688898" y="25.3" width="17.6" height="4.4"></rect>
                    <g id="编组-28" transform="translate(19.651459, 8.999239) rotate(5.000000) translate(-19.651459, -8.999239) translate(3.151459, 5.499239)" fill="url(#linearGradient-3)">
                        <polygon id="矩形" points="0 0 16.5 1.06590641 16.5 5.5 0 6.6"></polygon>
                        <polygon id="矩形" transform="translate(24.750000, 3.300000) scale(-1, 1) translate(-24.750000, -3.300000) " points="16.5 0 33 1.06590641 33 5.5 16.5 6.6"></polygon>
                    </g>
                    <rect id="矩形" fill="url(#linearGradient-4)" x="17.4688898" y="3.3" width="4.4" height="2.2"></rect>
                    <polyline id="路径-45" stroke="#979797" stroke-width="1.1" opacity="0.247310093" points="39.5127693 11 37.9821753 16.5 34.1 15.5469944"></polyline>
                    <polyline id="路径-45" stroke="#979797" stroke-width="1.1" opacity="0.247310093" transform="translate(2.706385, 2.750000) scale(-1, -1) translate(-2.706385, -2.750000) " points="5.4127693 0 3.88217525 5.5 0 4.54699442"></polyline>
                </g>
                <rect id="矩形" fill="url(#linearGradient-5)" x="18.5688898" y="5.5" width="2.2" height="19.8"></rect>
            </g>
            <g id="编组-35">
                <g id="编组-33">
                    <rect id="矩形" fill="url(#linearGradient-2)" x="10.8688898" y="25.3" width="17.6" height="4.4"></rect>
                    <g id="编组-28" transform="translate(19.651459, 8.999239) rotate(5.000000) translate(-19.651459, -8.999239) translate(3.151459, 5.499239)" fill="url(#linearGradient-3)">
                        <polygon id="矩形" points="0 0 16.5 1.06590641 16.5 5.5 0 6.6"></polygon>
                        <polygon id="矩形" transform="translate(24.750000, 3.300000) scale(-1, 1) translate(-24.750000, -3.300000) " points="16.5 0 33 1.06590641 33 5.5 16.5 6.6"></polygon>
                    </g>
                    <rect id="矩形" fill="url(#linearGradient-4)" x="17.4688898" y="3.3" width="4.4" height="2.2"></rect>
                    <polyline id="路径-45" stroke="#979797" stroke-width="1.1" opacity="0.247310093" points="39.5127693 11 37.9821753 16.5 34.1 15.5469944"></polyline>
                    <polyline id="路径-45" stroke="#979797" stroke-width="1.1" opacity="0.247310093" transform="translate(2.706385, 2.750000) scale(-1, -1) translate(-2.706385, -2.750000) " points="5.4127693 0 3.88217525 5.5 0 4.54699442"></polyline>
                </g>
                <rect id="矩形" fill="url(#linearGradient-5)" x="18.5688898" y="5.5" width="2.2" height="19.8"></rect>
            </g>
            <polyline id="路径-46" stroke="#414BA1" stroke-width="2.2" stroke-linecap="round" stroke-linejoin="round" points="78.5196414 40.7 78.5196414 55.2704101 101.06889 55.2704101 101.06889 62.7"></polyline>
            <polyline id="路径-46" stroke="#414BA1" stroke-width="2.2" stroke-linecap="round" stroke-linejoin="round" transform="translate(55.694266, 51.700000) scale(-1, 1) translate(-55.694266, -51.700000) " points="44.4196414 40.7 44.4196414 55.2704101 66.9688898 55.2704101 66.9688898 62.7"></polyline>
            <rect id="矩形备份-11" fill="url(#linearGradient-6)" x="39.4688898" y="60.5" width="9.9" height="2.2"></rect>
            <rect id="矩形备份-11" fill="url(#linearGradient-6)" x="95.5688898" y="60.5" width="9.9" height="2.2"></rect>
            <path d="M89.8551074,32.45 L83.1176074,40.15 L61.8854374,40.15 L54.1854374,32.45 L89.8551074,32.45 Z" id="矩形" stroke="#414BA1" stroke-width="3.3"></path>
            <rect id="矩形" fill="url(#linearGradient-7)" x="7.56888981" y="29.7" width="129.8" height="6.6"></rect>
            <circle id="椭圆形" fill="url(#linearGradient-8)" cx="71.3688898" cy="20.9" r="13.2"></circle>
            <circle id="椭圆形" fill="url(#linearGradient-9)" cx="71.3688898" cy="20.9" r="8.8"></circle>
            <circle id="椭圆形" fill="url(#linearGradient-10)" cx="72.4688898" cy="19.8" r="3.3"></circle>
            <g id="编组-30" transform="translate(25.168890, 62.700000)">
                <rect id="矩形" fill="url(#linearGradient-11)" x="0" y="5.5" width="94.6" height="41.8"></rect>
                <rect id="矩形备份-26" fill="url(#linearGradient-12)" opacity="0.251501174" x="0" y="16.5" width="67.1" height="28.6"></rect>
                <rect id="矩形备份-30" fill="url(#linearGradient-13)" opacity="0.218805949" transform="translate(64.350000, 18.150000) scale(-1, 1) translate(-64.350000, -18.150000) " x="34.1" y="5.5" width="60.5" height="25.3"></rect>
                <rect id="矩形" fill="#4DA3DF" transform="translate(47.300000, 2.750000) scale(1, -1) translate(-47.300000, -2.750000) " x="0" y="0" width="94.6" height="5.5"></rect>
            </g>
            <polygon id="路径" fill="#FFFFFF" fill-rule="nonzero" points="90.0688898 80.3470277 85.1683357 75.9 71.9679498 89.6784709 64.0740299 82.845129 59.2688898 88.0206485 71.9472749 99"></polygon>
            <line x1="72.4688898" y1="111.1" x2="72.4688898" y2="115.5" id="直线-7" stroke="#323B95" stroke-width="2.2" stroke-linecap="square"></line>
            <polygon id="矩形" fill="#57D1B5" points="69.1688898 116.595305 72.4688898 115.454718 75.7688898 116.595305 75.7688898 126.454718 69.1688898 126.454718"></polygon>
            <circle id="椭圆形" fill="#F8F8FA" cx="72.4688898" cy="118.8" r="1.1"></circle>
        </g>
    </g>
</svg>